<?xml version="1.0" encoding="iso-8859-1"?>
<!-- Generator: Adobe Illustrator 16.0.0, SVG Export Plug-In . SVG Version: 6.00 Build 0)  -->
<!DOCTYPE svg PUBLIC "-//W3C//DTD SVG 1.1//EN" "http://www.w3.org/Graphics/SVG/1.1/DTD/svg11.dtd">
<svg version="1.1" id="Capa_1" xmlns="http://www.w3.org/2000/svg" xmlns:xlink="http://www.w3.org/1999/xlink" x="0px" y="0px"
	 width="874.1px" height="874.1px" viewBox="0 0 874.1 874.1" style="enable-background:new 0 0 874.1 874.1;" xml:space="preserve"
	>
<g>
	<g>
		<path d="M50,300.05c-27.6,0-50,22.4-50,50v174c0,27.6,22.4,50,50,50s50-22.4,50-50v-174C100,322.45,77.6,300.05,50,300.05z"/>
		<path d="M690.1,244.55c-27.6,0-50,22.4-50,50v102.5h-406v-102.5c0-27.6-22.4-50-50-50c-27.6,0-50,22.4-50,50v285
			c0,27.6,22.4,50,50,50c27.6,0,50-22.4,50-50v-102.5h406v102.5c0,27.6,22.4,50,50,50s50-22.4,50-50v-285
			C740.1,266.95,717.699,244.55,690.1,244.55z"/>
		<path d="M824.1,300.05c-27.6,0-50,22.4-50,50v174c0,27.6,22.4,50,50,50s50-22.4,50-50v-174
			C874.1,322.45,851.699,300.05,824.1,300.05z"/>
	</g>
</g>
<g>
</g>
<g>
</g>
<g>
</g>
<g>
</g>
<g>
</g>
<g>
</g>
<g>
</g>
<g>
</g>
<g>
</g>
<g>
</g>
<g>
</g>
<g>
</g>
<g>
</g>
<g>
</g>
<g>
</g>
</svg>
