<?xml version="1.0" ?><!DOCTYPE svg  PUBLIC '-//W3C//DTD SVG 1.1//EN'  'http://www.w3.org/Graphics/SVG/1.1/DTD/svg11.dtd'><svg enable-background="new 0 0 128 128" height="128px" id="Layer_1" version="1.1" viewBox="0 0 128 128" width="128px" xml:space="preserve" xmlns="http://www.w3.org/2000/svg" xmlns:xlink="http://www.w3.org/1999/xlink"><g id="per_x5F_click"><path d="M102.833,70.123c-4.154-11.041-6.18-13.619-15.419-11.568c-16.711,3.709,0.944-0.329-15.766,3.38   c-2.929,0.65-5.135-0.6-5.856-2.194c-2.92-6.462-8.527-18.208-8.527-18.208s-3.263-5.217-7.512-3.735s-2.768,7.319-2.768,7.319   l15.313,43.916c0,0-9.489-1.467-17.515,1.332c-8.026,2.799-8.467,6.114-7.489,8.966c1.298,3.784,9.353,0.205,14.169,0.747   c5.635,0.634,13.307,4.146,13.307,4.146l10.902,4.297c-0.455,0.913-0.602,1.958-0.261,2.936l3.183,9.128   c0.724,2.077,3.441,3.389,5.519,2.665l28.012-9.768c2.077-0.724,3.075-3.331,2.35-5.409l-3.183-9.128   c-0.384-1.101-1.214-1.918-2.214-2.345c-0.082-1.911-0.316-4.538-0.925-7.416C107.258,84.945,106.003,78.549,102.833,70.123z    M110.809,109.704l-28.327,9.878l-3.293-9.442l0.315-0.11l28.013-9.768L110.809,109.704z" fill="#454545"/><path d="M47.585,59.217l-1.674-4.824C41.825,52.382,39,48.187,39,43.333C39,36.533,44.533,31,51.333,31   c6.801,0,12.333,5.533,12.333,12.333c0,0.679-0.069,1.34-0.175,1.989c0.758,1.603,1.612,3.416,2.469,5.247   c1.082-2.183,1.706-4.634,1.706-7.236C67.667,34.313,60.354,27,51.333,27C42.313,27,35,34.313,35,43.333   C35,51.062,40.374,57.521,47.585,59.217z" fill="#454545"/><path d="M51.506,70.515l-1.398-4.028c-12.217-0.639-21.96-10.779-21.96-23.153   c0-12.785,10.401-23.186,23.186-23.186s23.186,10.401,23.186,23.186c0,5.516-1.939,10.586-5.168,14.571   c0.008,0.018,0.017,0.037,0.025,0.055c0.1,0.06,0.336,0.151,0.724,0.151c0.211,0,0.439-0.028,0.681-0.081   c1.624-0.36,2.913-0.646,3.963-0.878c2.396-4.05,3.776-8.772,3.776-13.818c0-15.014-12.171-27.186-27.186-27.186   S24.148,28.319,24.148,43.333s12.172,27.186,27.186,27.186C51.391,70.519,51.448,70.515,51.506,70.515z" fill="#454545"/><path d="M55.194,81.139l-1.356-3.908c-0.828,0.061-1.661,0.102-2.504,0.102c-18.748,0-34-15.252-34-34   s15.252-34,34-34s34,15.252,34,34c0,4.252-0.792,8.322-2.224,12.077c0.982-0.216,2.123-0.469,3.438-0.76   c0.399-0.089,0.767-0.158,1.139-0.231c1.068-3.508,1.648-7.229,1.648-11.086c0-20.987-17.013-38-38-38s-38,17.013-38,38   s17.013,38,38,38C52.637,81.333,53.925,81.267,55.194,81.139z" fill="#454545"/></g></svg>