<?xml version="1.0" encoding="utf-8"?>
<!-- Generator: Adobe Illustrator 18.1.0, SVG Export Plug-In . SVG Version: 6.00 Build 0)  -->
<svg version="1.1" id="Layer_1" xmlns="http://www.w3.org/2000/svg" xmlns:xlink="http://www.w3.org/1999/xlink" x="0px" y="0px"
	 viewBox="0 0 235.3 62.8" enable-background="new 0 0 235.3 62.8" xml:space="preserve">
<g>
	<g>
		<path fill="#FFFFFF" d="M48.3,61.6H32.6L49.8,7.2h15.7L48.3,61.6z"/>
		<path fill="#FFFFFF" d="M67,8.7h20.5c4.2,0,7.7,0.5,10.5,1.4c2.8,1,5.1,2.3,6.7,3.9c1.7,1.7,2.8,3.6,3.5,5.9c0.7,2.2,1,4.7,1,7.2
			c0,2.6-0.4,5.1-1.1,7.3c-0.7,2.3-1.9,4.2-3.5,5.9c-1.6,1.7-3.9,3-6.7,3.9c-2.8,1-6.3,1.4-10.4,1.4h-4.4v15.9H67V8.7z M83.2,32.8
			h4.5c2.5,0,4.2-0.5,5.1-1.4s1.4-2.3,1.4-4.2s-0.5-3.2-1.4-4.2s-2.6-1.4-5.1-1.4h-4.5V32.8z"/>
		<path fill="#FFFFFF" d="M148.4,48.7c-0.8,4.8-2.9,8.3-6.1,10.6c-3.2,2.3-7.5,3.4-12.9,3.4c-6.9,0-12-1.8-15.4-5.4
			c-3.4-3.6-5.1-8.5-5.1-14.9c0-3.3,0.5-6.3,1.4-8.9c0.9-2.6,2.2-4.9,4-6.7c1.8-1.8,3.9-3.2,6.4-4.2c2.5-1,5.3-1.4,8.5-1.4
			c3.1,0,5.9,0.5,8.3,1.4c2.4,0.9,4.5,2.3,6.1,4c1.7,1.8,2.9,3.9,3.7,6.4c0.8,2.5,1.3,5.3,1.3,8.3v4h-24.8c0.1,2.5,0.6,4.2,1.6,5.1
			c0.9,0.9,2.2,1.4,3.8,1.4c2.5,0,4.1-1.1,4.7-3.2H148.4z M129.4,32.1c-1.6,0-2.9,0.4-3.9,1.3c-1,0.9-1.5,2.3-1.6,4.2h10.3
			c-0.1-2.1-0.6-3.5-1.4-4.3C132,32.5,130.9,32.1,129.4,32.1z"/>
		<path fill="#FFFFFF" d="M173.9,61.6v-3.7c-1.6,1.6-3.3,2.8-5.1,3.6c-1.8,0.8-3.9,1.2-6.3,1.2c-1.6,0-3.2-0.2-4.8-0.7
			c-1.6-0.4-3-1.1-4.2-2.1c-1.2-1-2.2-2.2-3-3.7c-0.8-1.5-1.1-3.3-1.1-5.4c0-2.6,0.6-4.7,1.7-6.5c1.1-1.7,2.6-3.1,4.5-4.1
			c1.9-1,3.9-1.7,6-2.1c2.1-0.4,4.5-0.6,7.2-0.7l4.5-0.2V36c0-1.5-0.3-2.5-0.9-3.2c-0.6-0.7-1.5-1-2.7-1c-1.1,0-2,0.3-2.7,0.8
			c-0.6,0.5-1.1,1.4-1.3,2.4l-14.2-1c0.6-4.2,2.5-7.4,5.6-9.5s7.4-3.2,12.9-3.2c3.4,0,6.3,0.4,8.6,1.2c2.3,0.8,4.1,1.9,5.6,3.3
			c1.4,1.4,2.4,3.2,3,5.2c0.6,2,0.9,4.3,0.9,6.7v23.9H173.9z M173.3,45.8l-4.1,0.2c-1.8,0.1-3.2,0.5-4,1.1c-0.9,0.6-1.3,1.5-1.3,2.6
			c0,0.9,0.3,1.6,0.9,2.1c0.6,0.5,1.5,0.7,2.6,0.7c1.7,0,3.1-0.5,4.3-1.6c1.1-1.1,1.7-2.5,1.7-4.2V45.8z"/>
		<path fill="#FFFFFF" d="M210.2,45.2l-3.6,3.5v12.9h-15.1V8.7h15.1V33l10-10.5h17.6l-13.4,13l14.5,26.1h-16.6L210.2,45.2z"/>
	</g>
	<g>
		<g>
			<path opacity="0.369" fill="#FFFFFF" enable-background="new    " d="M25.8,14c0.5-0.5,1-0.9,1.6-1.4c-0.8-0.3-1.3-0.7-1.3-1.3
				c0-0.7,0.7-1.1,1.6-1.1c0.7,0,1.4,0.3,1.4,0.8v0.3c0.6-0.4,1.1-0.9,1.7-1.3c-0.3-0.9-1.4-1.4-2.4-1.5c-1,0.9-2.1,1.8-3.1,2.7
				c-0.4,0.4-0.7,0.7-1.1,1.1C24.5,13,25.1,13.6,25.8,14z"/>
			<path opacity="0.369" fill="#FFFFFF" enable-background="new    " d="M25.8,14c0.5-0.5,1-0.9,1.6-1.4c-0.8-0.3-1.3-0.7-1.3-1.3
				c0-0.7,0.7-1.1,1.6-1.1c0.7,0,1.4,0.3,1.4,0.8v0.3c0.6-0.4,1.1-0.9,1.7-1.3c-0.3-0.9-1.4-1.4-2.4-1.5c-1,0.9-2.1,1.8-3.1,2.7
				c-0.4,0.4-0.7,0.7-1.1,1.1C24.5,13,25.1,13.6,25.8,14z"/>
			<path opacity="0.369" fill="#FFFFFF" enable-background="new    " d="M29.1,16.3c0,0.3-0.1,0.6-0.3,0.7c0.7-0.6,1.4-1.1,2.1-1.7
				c-0.4-1.7-2.3-2.2-3.6-2.8c-0.5,0.5-1.1,0.9-1.6,1.4C27.3,14.8,29.1,15.2,29.1,16.3z"/>
			<path opacity="0.369" fill="#FFFFFF" enable-background="new    " d="M29.1,16.3c0,0.3-0.1,0.6-0.3,0.7c0.7-0.6,1.4-1.1,2.1-1.7
				c-0.4-1.7-2.3-2.2-3.6-2.8c-0.5,0.5-1.1,0.9-1.6,1.4C27.3,14.8,29.1,15.2,29.1,16.3z"/>
			<path opacity="0.369" fill="#FFFFFF" enable-background="new    " d="M29.1,16.3c0,0.3-0.1,0.6-0.3,0.7c0.7-0.6,1.4-1.1,2.1-1.7
				c-0.4-1.7-2.3-2.2-3.6-2.8c-0.5,0.5-1.1,0.9-1.6,1.4C27.3,14.8,29.1,15.2,29.1,16.3z"/>
			<path opacity="0.369" fill="#FFFFFF" enable-background="new    " d="M29.1,16.3c0,0.3-0.1,0.6-0.3,0.7c0.7-0.6,1.4-1.1,2.1-1.7
				c-0.4-1.7-2.3-2.2-3.6-2.8c-0.5,0.5-1.1,0.9-1.6,1.4C27.3,14.8,29.1,15.2,29.1,16.3z"/>
			<path opacity="0.369" fill="#FFFFFF" enable-background="new    " d="M29.1,11.4h1.8v-1c0-0.2,0-0.4-0.1-0.5
				c-0.6,0.4-1.1,0.9-1.7,1.3V11.4z"/>
			<path opacity="0.369" fill="#FFFFFF" enable-background="new    " d="M29.1,11.4h1.8v-1c0-0.2,0-0.4-0.1-0.5
				c-0.6,0.4-1.1,0.9-1.7,1.3V11.4z"/>
			<path opacity="0.369" fill="#FFFFFF" enable-background="new    " d="M29.1,11.4h1.8v-1c0-0.2,0-0.4-0.1-0.5
				c-0.6,0.4-1.1,0.9-1.7,1.3V11.4z"/>
			<path opacity="0.369" fill="#FFFFFF" enable-background="new    " d="M29.1,11.4h1.8v-1c0-0.2,0-0.4-0.1-0.5
				c-0.6,0.4-1.1,0.9-1.7,1.3V11.4z"/>
			<path opacity="0.369" fill="#FFFFFF" enable-background="new    " d="M27.6,17.6c-1.5,0-2.6-1.3-2.6-1.3l-1.1,1.4
				c0,0,0.8,1,2.3,1.5c0.7-0.6,1.5-1.2,2.2-1.8C28.2,17.5,27.9,17.6,27.6,17.6z"/>
			<path opacity="0.369" fill="#FFFFFF" enable-background="new    " d="M27.6,17.6c-1.5,0-2.6-1.3-2.6-1.3l-1.1,1.4
				c0,0,0.8,1,2.3,1.5c0.7-0.6,1.5-1.2,2.2-1.8C28.2,17.5,27.9,17.6,27.6,17.6z"/>
			<path opacity="0.369" fill="#FFFFFF" enable-background="new    " d="M27.6,17.6c-1.5,0-2.6-1.3-2.6-1.3l-1.1,1.4
				c0,0,0.8,1,2.3,1.5c0.7-0.6,1.5-1.2,2.2-1.8C28.2,17.5,27.9,17.6,27.6,17.6z"/>
			<path opacity="0.369" fill="#FFFFFF" enable-background="new    " d="M27.6,17.6c-1.5,0-2.6-1.3-2.6-1.3l-1.1,1.4
				c0,0,0.8,1,2.3,1.5c0.7-0.6,1.5-1.2,2.2-1.8C28.2,17.5,27.9,17.6,27.6,17.6z"/>
			<path opacity="0.369" fill="#FFFFFF" enable-background="new    " d="M28.4,8.4c-0.2,0-0.5-0.1-0.7-0.1c-2.1,0-3.6,1.3-3.6,3
				c0,0.3,0,0.6,0.1,0.9c0.4-0.4,0.7-0.7,1.1-1.1C26.3,10.2,27.3,9.3,28.4,8.4z"/>
			<path opacity="0.369" fill="#FFFFFF" enable-background="new    " d="M28.4,8.4c-0.2,0-0.5-0.1-0.7-0.1c-2.1,0-3.6,1.3-3.6,3
				c0,0.3,0,0.6,0.1,0.9c0.4-0.4,0.7-0.7,1.1-1.1C26.3,10.2,27.3,9.3,28.4,8.4z"/>
			<path opacity="0.369" fill="#FFFFFF" enable-background="new    " d="M28.4,8.4c-0.2,0-0.5-0.1-0.7-0.1c-2.1,0-3.6,1.3-3.6,3
				c0,0.3,0,0.6,0.1,0.9c0.4-0.4,0.7-0.7,1.1-1.1C26.3,10.2,27.3,9.3,28.4,8.4z"/>
			<path opacity="0.369" fill="#FFFFFF" enable-background="new    " d="M28.4,8.4c-0.2,0-0.5-0.1-0.7-0.1c-2.1,0-3.6,1.3-3.6,3
				c0,0.3,0,0.6,0.1,0.9c0.4-0.4,0.7-0.7,1.1-1.1C26.3,10.2,27.3,9.3,28.4,8.4z"/>
			<path opacity="0.369" fill="#FFFFFF" enable-background="new    " d="M28.5,17.4c-0.7,0.6-1.5,1.2-2.2,1.8
				c0.4,0.1,0.8,0.2,1.3,0.2c2.2,0,3.5-1.4,3.5-3.1c0-0.3,0-0.6-0.1-0.8c-0.7,0.5-1.4,1.1-2.1,1.7C28.8,17.2,28.6,17.3,28.5,17.4z"
				/>
			<path opacity="0.369" fill="#FFFFFF" enable-background="new    " d="M28.5,17.4c-0.7,0.6-1.5,1.2-2.2,1.8
				c0.4,0.1,0.8,0.2,1.3,0.2c2.2,0,3.5-1.4,3.5-3.1c0-0.3,0-0.6-0.1-0.8c-0.7,0.5-1.4,1.1-2.1,1.7C28.8,17.2,28.6,17.3,28.5,17.4z"
				/>
			<path opacity="0.369" fill="#FFFFFF" enable-background="new    " d="M28.5,17.4c-0.7,0.6-1.5,1.2-2.2,1.8
				c0.4,0.1,0.8,0.2,1.3,0.2c2.2,0,3.5-1.4,3.5-3.1c0-0.3,0-0.6-0.1-0.8c-0.7,0.5-1.4,1.1-2.1,1.7C28.8,17.2,28.6,17.3,28.5,17.4z"
				/>
			<path opacity="0.369" fill="#FFFFFF" enable-background="new    " d="M28.5,17.4c-0.7,0.6-1.5,1.2-2.2,1.8
				c0.4,0.1,0.8,0.2,1.3,0.2c2.2,0,3.5-1.4,3.5-3.1c0-0.3,0-0.6-0.1-0.8c-0.7,0.5-1.4,1.1-2.1,1.7C28.8,17.2,28.6,17.3,28.5,17.4z"
				/>
			<path opacity="0.369" fill="#FFFFFF" enable-background="new    " d="M28.5,17.4c-0.7,0.6-1.5,1.2-2.2,1.8
				c0.4,0.1,0.8,0.2,1.3,0.2c2.2,0,3.5-1.4,3.5-3.1c0-0.3,0-0.6-0.1-0.8c-0.7,0.5-1.4,1.1-2.1,1.7C28.8,17.2,28.6,17.3,28.5,17.4z"
				/>
			<path opacity="0.369" fill="#FFFFFF" enable-background="new    " d="M28.5,17.4c-0.7,0.6-1.5,1.2-2.2,1.8
				c0.4,0.1,0.8,0.2,1.3,0.2c2.2,0,3.5-1.4,3.5-3.1c0-0.3,0-0.6-0.1-0.8c-0.7,0.5-1.4,1.1-2.1,1.7C28.8,17.2,28.6,17.3,28.5,17.4z"
				/>
		</g>
		<g>
			<path opacity="0.369" fill="#FFFFFF" enable-background="new    " d="M5.7,10l9-9l-1-1L0.3,13.3l0,0L0,13.7l0.8,0.8
				C2.4,12.9,4,11.4,5.7,10z"/>
			<path opacity="0.369" fill="#FFFFFF" enable-background="new    " d="M5.7,10l9-9l-1-1L0.3,13.3l0,0L0,13.7l0.8,0.8
				C2.4,12.9,4,11.4,5.7,10z"/>
			<path opacity="0.369" fill="#FFFFFF" enable-background="new    " d="M5.7,10l9-9l-1-1L0.3,13.3l0,0L0,13.7l0.8,0.8
				C2.4,12.9,4,11.4,5.7,10z"/>
			<path opacity="0.369" fill="#FFFFFF" enable-background="new    " d="M5.7,10l9-9l-1-1L0.3,13.3l0,0L0,13.7l0.8,0.8
				C2.4,12.9,4,11.4,5.7,10z"/>
			<path opacity="0.369" fill="#FFFFFF" enable-background="new    " d="M10.3,24l3,3l1-1l-3-3c-0.1,0.1-0.2,0.2-0.3,0.3
				C10.8,23.6,10.5,23.8,10.3,24z"/>
			<path opacity="0.369" fill="#FFFFFF" enable-background="new    " d="M10.3,24l3,3l1-1l-3-3c-0.1,0.1-0.2,0.2-0.3,0.3
				C10.8,23.6,10.5,23.8,10.3,24z"/>
			<path opacity="0.369" fill="#FFFFFF" enable-background="new    " d="M5.8,18.9c0.2-0.3,0.4-0.5,0.6-0.8L2,13.7L5.7,10
				c-1.7,1.5-3.3,3-4.9,4.6l4.7,4.7C5.6,19.1,5.7,19,5.8,18.9z"/>
			<path opacity="0.369" fill="#FFFFFF" enable-background="new    " d="M5.8,18.9c0.2-0.3,0.4-0.5,0.6-0.8L2,13.7L5.7,10
				c-1.7,1.5-3.3,3-4.9,4.6l4.7,4.7C5.6,19.1,5.7,19,5.8,18.9z"/>
			<path opacity="0.369" fill="#FFFFFF" enable-background="new    " d="M5.8,18.9c0.2-0.3,0.4-0.5,0.6-0.8L2,13.7L5.7,10
				c-1.7,1.5-3.3,3-4.9,4.6l4.7,4.7C5.6,19.1,5.7,19,5.8,18.9z"/>
			<path opacity="0.369" fill="#FFFFFF" enable-background="new    " d="M5.8,18.9c0.2-0.3,0.4-0.5,0.6-0.8L2,13.7L5.7,10
				c-1.7,1.5-3.3,3-4.9,4.6l4.7,4.7C5.6,19.1,5.7,19,5.8,18.9z"/>
			<path opacity="0.369" fill="#FFFFFF" enable-background="new    " d="M5.8,18.9c0.2-0.3,0.4-0.5,0.6-0.8L2,13.7L5.7,10
				c-1.7,1.5-3.3,3-4.9,4.6l4.7,4.7C5.6,19.1,5.7,19,5.8,18.9z"/>
			<path opacity="0.369" fill="#FFFFFF" enable-background="new    " d="M5.8,18.9c0.2-0.3,0.4-0.5,0.6-0.8L2,13.7L5.7,10
				c-1.7,1.5-3.3,3-4.9,4.6l4.7,4.7C5.6,19.1,5.7,19,5.8,18.9z"/>
			<path opacity="0.369" fill="#FFFFFF" enable-background="new    " d="M7,20.2c0,0.2,0,0.4,0,0.6l3.2,3.2c0.2-0.2,0.4-0.4,0.7-0.6
				c0.1-0.1,0.2-0.2,0.3-0.3l-3.9-3.9c-0.1,0.2-0.2,0.3-0.3,0.5C7.1,19.8,7.1,20,7,20.2z"/>
			<path opacity="0.369" fill="#FFFFFF" enable-background="new    " d="M7,20.2c0,0.2,0,0.4,0,0.6l3.2,3.2c0.2-0.2,0.4-0.4,0.7-0.6
				c0.1-0.1,0.2-0.2,0.3-0.3l-3.9-3.9c-0.1,0.2-0.2,0.3-0.3,0.5C7.1,19.8,7.1,20,7,20.2z"/>
			<path opacity="0.369" fill="#FFFFFF" enable-background="new    " d="M7,20.2c0,0.2,0,0.4,0,0.6l3.2,3.2c0.2-0.2,0.4-0.4,0.7-0.6
				c0.1-0.1,0.2-0.2,0.3-0.3l-3.9-3.9c-0.1,0.2-0.2,0.3-0.3,0.5C7.1,19.8,7.1,20,7,20.2z"/>
			<path opacity="0.369" fill="#FFFFFF" enable-background="new    " d="M7,20.2c0,0.2,0,0.4,0,0.6l3.2,3.2c0.2-0.2,0.4-0.4,0.7-0.6
				c0.1-0.1,0.2-0.2,0.3-0.3l-3.9-3.9c-0.1,0.2-0.2,0.3-0.3,0.5C7.1,19.8,7.1,20,7,20.2z"/>
			<path opacity="0.369" fill="#FFFFFF" enable-background="new    " d="M7.1,19.7c0.1-0.2,0.2-0.3,0.3-0.5L7.2,19
				C7.2,19.2,7.2,19.4,7.1,19.7z"/>
			<path opacity="0.369" fill="#FFFFFF" enable-background="new    " d="M7.1,19.7c0.1-0.2,0.2-0.3,0.3-0.5L7.2,19
				C7.2,19.2,7.2,19.4,7.1,19.7z"/>
			<path opacity="0.369" fill="#FFFFFF" enable-background="new    " d="M7.1,19.7c0.1-0.2,0.2-0.3,0.3-0.5L7.2,19
				C7.2,19.2,7.2,19.4,7.1,19.7z"/>
			<path opacity="0.369" fill="#FFFFFF" enable-background="new    " d="M7.1,19.7c0.1-0.2,0.2-0.3,0.3-0.5L7.2,19
				C7.2,19.2,7.2,19.4,7.1,19.7z"/>
			<path opacity="0.369" fill="#FFFFFF" enable-background="new    " d="M7.1,19.7c0.1-0.2,0.2-0.3,0.3-0.5L7.2,19
				C7.2,19.2,7.2,19.4,7.1,19.7z"/>
			<path opacity="0.369" fill="#FFFFFF" enable-background="new    " d="M7.1,19.7c0.1-0.2,0.2-0.3,0.3-0.5L7.2,19
				C7.2,19.2,7.2,19.4,7.1,19.7z"/>
			<path opacity="0.369" fill="#FFFFFF" enable-background="new    " d="M7.1,19.7c-0.2,0.2-0.3,0.5-0.5,0.7l0.4,0.4
				c0-0.2,0-0.4,0-0.6C7.1,20,7.1,19.8,7.1,19.7z"/>
			<path opacity="0.369" fill="#FFFFFF" enable-background="new    " d="M7.1,19.7c-0.2,0.2-0.3,0.5-0.5,0.7l0.4,0.4
				c0-0.2,0-0.4,0-0.6C7.1,20,7.1,19.8,7.1,19.7z"/>
			<path opacity="0.369" fill="#FFFFFF" enable-background="new    " d="M7.1,19.7c-0.2,0.2-0.3,0.5-0.5,0.7l0.4,0.4
				c0-0.2,0-0.4,0-0.6C7.1,20,7.1,19.8,7.1,19.7z"/>
			<path opacity="0.369" fill="#FFFFFF" enable-background="new    " d="M7.1,19.7c-0.2,0.2-0.3,0.5-0.5,0.7l0.4,0.4
				c0-0.2,0-0.4,0-0.6C7.1,20,7.1,19.8,7.1,19.7z"/>
			<path opacity="0.369" fill="#FFFFFF" enable-background="new    " d="M7.1,19.7c-0.2,0.2-0.3,0.5-0.5,0.7l0.4,0.4
				c0-0.2,0-0.4,0-0.6C7.1,20,7.1,19.8,7.1,19.7z"/>
			<path opacity="0.369" fill="#FFFFFF" enable-background="new    " d="M7.1,19.7c-0.2,0.2-0.3,0.5-0.5,0.7l0.4,0.4
				c0-0.2,0-0.4,0-0.6C7.1,20,7.1,19.8,7.1,19.7z"/>
			<path opacity="0.369" fill="#FFFFFF" enable-background="new    " d="M5.5,19.2l1.1,1.1c0.1-0.2,0.3-0.5,0.5-0.7
				c0-0.2,0.1-0.5,0.1-0.7l-0.9-0.9c-0.2,0.3-0.4,0.5-0.6,0.8C5.7,19,5.6,19.1,5.5,19.2z"/>
			<path opacity="0.369" fill="#FFFFFF" enable-background="new    " d="M5.5,19.2l1.1,1.1c0.1-0.2,0.3-0.5,0.5-0.7
				c0-0.2,0.1-0.5,0.1-0.7l-0.9-0.9c-0.2,0.3-0.4,0.5-0.6,0.8C5.7,19,5.6,19.1,5.5,19.2z"/>
			<path opacity="0.369" fill="#FFFFFF" enable-background="new    " d="M5.5,19.2l1.1,1.1c0.1-0.2,0.3-0.5,0.5-0.7
				c0-0.2,0.1-0.5,0.1-0.7l-0.9-0.9c-0.2,0.3-0.4,0.5-0.6,0.8C5.7,19,5.6,19.1,5.5,19.2z"/>
			<path opacity="0.369" fill="#FFFFFF" enable-background="new    " d="M5.5,19.2l1.1,1.1c0.1-0.2,0.3-0.5,0.5-0.7
				c0-0.2,0.1-0.5,0.1-0.7l-0.9-0.9c-0.2,0.3-0.4,0.5-0.6,0.8C5.7,19,5.6,19.1,5.5,19.2z"/>
			<path opacity="0.369" fill="#FFFFFF" enable-background="new    " d="M5.5,19.2l1.1,1.1c0.1-0.2,0.3-0.5,0.5-0.7
				c0-0.2,0.1-0.5,0.1-0.7l-0.9-0.9c-0.2,0.3-0.4,0.5-0.6,0.8C5.7,19,5.6,19.1,5.5,19.2z"/>
			<path opacity="0.369" fill="#FFFFFF" enable-background="new    " d="M5.5,19.2l1.1,1.1c0.1-0.2,0.3-0.5,0.5-0.7
				c0-0.2,0.1-0.5,0.1-0.7l-0.9-0.9c-0.2,0.3-0.4,0.5-0.6,0.8C5.7,19,5.6,19.1,5.5,19.2z"/>
			<path opacity="0.369" fill="#FFFFFF" enable-background="new    " d="M5.5,19.2l1.1,1.1c0.1-0.2,0.3-0.5,0.5-0.7
				c0-0.2,0.1-0.5,0.1-0.7l-0.9-0.9c-0.2,0.3-0.4,0.5-0.6,0.8C5.7,19,5.6,19.1,5.5,19.2z"/>
			<path opacity="0.369" fill="#FFFFFF" enable-background="new    " d="M5.5,19.2l1.1,1.1c0.1-0.2,0.3-0.5,0.5-0.7
				c0-0.2,0.1-0.5,0.1-0.7l-0.9-0.9c-0.2,0.3-0.4,0.5-0.6,0.8C5.7,19,5.6,19.1,5.5,19.2z"/>
		</g>
		<g>
			<path opacity="0.369" fill="#FFFFFF" enable-background="new    " d="M26,26l1,1l1-1c-0.4-0.3-0.8-0.6-1.2-0.8L26,26z"/>
			<path opacity="0.369" fill="#FFFFFF" enable-background="new    " d="M26,26l1,1l1-1c-0.4-0.3-0.8-0.6-1.2-0.8L26,26z"/>
			<path opacity="0.369" fill="#FFFFFF" enable-background="new    " d="M29,4.7c-0.1,0-0.2-0.1-0.3-0.1l9.4,9.4L26.9,25.1
				c0.4,0.3,0.8,0.6,1.2,0.8l12-12l-1-1l0,0l-5.9-5.9c-0.6-0.4-1.1-0.7-1.7-1.1C30.7,5.6,29.8,5.2,29,4.7z"/>
			<path opacity="0.369" fill="#FFFFFF" enable-background="new    " d="M29,4.7c-0.1,0-0.2-0.1-0.3-0.1l9.4,9.4L26.9,25.1
				c0.4,0.3,0.8,0.6,1.2,0.8l12-12l-1-1l0,0l-5.9-5.9c-0.6-0.4-1.1-0.7-1.7-1.1C30.7,5.6,29.8,5.2,29,4.7z"/>
			<path opacity="0.369" fill="#FFFFFF" enable-background="new    " d="M29,4.7c-0.1,0-0.2-0.1-0.3-0.1l9.4,9.4L26.9,25.1
				c0.4,0.3,0.8,0.6,1.2,0.8l12-12l-1-1l0,0l-5.9-5.9c-0.6-0.4-1.1-0.7-1.7-1.1C30.7,5.6,29.8,5.2,29,4.7z"/>
			<path opacity="0.369" fill="#FFFFFF" enable-background="new    " d="M29,4.7c-0.1,0-0.2-0.1-0.3-0.1l9.4,9.4L26.9,25.1
				c0.4,0.3,0.8,0.6,1.2,0.8l12-12l-1-1l0,0l-5.9-5.9c-0.6-0.4-1.1-0.7-1.7-1.1C30.7,5.6,29.8,5.2,29,4.7z"/>
			<path opacity="0.369" fill="#FFFFFF" enable-background="new    " d="M25.1,1l3.5,3.5c0.1,0,0.2,0.1,0.3,0.1
				c0.9,0.5,1.7,0.9,2.6,1.4c0.6,0.4,1.1,0.7,1.7,1.1L26.1,0L25.1,1z"/>
			<path opacity="0.369" fill="#FFFFFF" enable-background="new    " d="M25.1,1l3.5,3.5c0.1,0,0.2,0.1,0.3,0.1
				c0.9,0.5,1.7,0.9,2.6,1.4c0.6,0.4,1.1,0.7,1.7,1.1L26.1,0L25.1,1z"/>
			<path opacity="0.369" fill="#FFFFFF" enable-background="new    " d="M25.1,1l3.5,3.5c0.1,0,0.2,0.1,0.3,0.1
				c0.9,0.5,1.7,0.9,2.6,1.4c0.6,0.4,1.1,0.7,1.7,1.1L26.1,0L25.1,1z"/>
			<path opacity="0.369" fill="#FFFFFF" enable-background="new    " d="M25.1,1l3.5,3.5c0.1,0,0.2,0.1,0.3,0.1
				c0.9,0.5,1.7,0.9,2.6,1.4c0.6,0.4,1.1,0.7,1.7,1.1L26.1,0L25.1,1z"/>
			<path opacity="0.369" fill="#FFFFFF" enable-background="new    " d="M25.1,1l3.5,3.5c0.1,0,0.2,0.1,0.3,0.1
				c0.9,0.5,1.7,0.9,2.6,1.4c0.6,0.4,1.1,0.7,1.7,1.1L26.1,0L25.1,1z"/>
			<path opacity="0.369" fill="#FFFFFF" enable-background="new    " d="M25.1,1l3.5,3.5c0.1,0,0.2,0.1,0.3,0.1
				c0.9,0.5,1.7,0.9,2.6,1.4c0.6,0.4,1.1,0.7,1.7,1.1L26.1,0L25.1,1z"/>
		</g>
		<g>
			<path opacity="0.369" fill="#FFFFFF" enable-background="new    " d="M15.3,8.6l0,0.2c0.1-0.1,0.2-0.1,0.3-0.2H15.3z"/>
			<path opacity="0.369" fill="#FFFFFF" enable-background="new    " d="M15.3,8.6l0,0.2c0.1-0.1,0.2-0.1,0.3-0.2H15.3z"/>
			<path opacity="0.369" fill="#FFFFFF" enable-background="new    " d="M8.9,9c0.2-0.2,0.4-0.3,0.6-0.5H8.9V9z"/>
			<path opacity="0.369" fill="#FFFFFF" enable-background="new    " d="M8.9,9c0.2-0.2,0.4-0.3,0.6-0.5H8.9V9z"/>
			<path opacity="0.369" fill="#FFFFFF" enable-background="new    " d="M8.9,10.2h0.3c0.3,0,0.4,0.1,0.5,0.3l0.4,1.5
				c0.6-0.4,1.2-0.8,1.8-1.2l-0.3-1.4c-0.2-0.7-0.6-0.9-1.3-0.9H9.5C9.3,8.7,9.1,8.8,8.9,9V10.2z"/>
			<path opacity="0.369" fill="#FFFFFF" enable-background="new    " d="M8.9,10.2h0.3c0.3,0,0.4,0.1,0.5,0.3l0.4,1.5
				c0.6-0.4,1.2-0.8,1.8-1.2l-0.3-1.4c-0.2-0.7-0.6-0.9-1.3-0.9H9.5C9.3,8.7,9.1,8.8,8.9,9V10.2z"/>
			<path opacity="0.369" fill="#FFFFFF" enable-background="new    " d="M8.9,10.2h0.3c0.3,0,0.4,0.1,0.5,0.3l0.4,1.5
				c0.6-0.4,1.2-0.8,1.8-1.2l-0.3-1.4c-0.2-0.7-0.6-0.9-1.3-0.9H9.5C9.3,8.7,9.1,8.8,8.9,9V10.2z"/>
			<path opacity="0.369" fill="#FFFFFF" enable-background="new    " d="M8.9,10.2h0.3c0.3,0,0.4,0.1,0.5,0.3l0.4,1.5
				c0.6-0.4,1.2-0.8,1.8-1.2l-0.3-1.4c-0.2-0.7-0.6-0.9-1.3-0.9H9.5C9.3,8.7,9.1,8.8,8.9,9V10.2z"/>
			<path opacity="0.369" fill="#FFFFFF" enable-background="new    " d="M18,19l0,0.1h2.3l0.4-1.5c-0.6,0.3-1.2,0.6-1.9,0.9
				C18.5,18.7,18.3,18.9,18,19z"/>
			<path opacity="0.369" fill="#FFFFFF" enable-background="new    " d="M18,19l0,0.1h2.3l0.4-1.5c-0.6,0.3-1.2,0.6-1.9,0.9
				C18.5,18.7,18.3,18.9,18,19z"/>
			<path opacity="0.369" fill="#FFFFFF" enable-background="new    " d="M10.3,13.2l0.6,2.3c0.5-0.6,1-1.2,1.6-1.7L11.8,11
				c-0.4,0.5-0.8,1-1.1,1.6C10.6,12.8,10.4,13,10.3,13.2z"/>
			<path opacity="0.369" fill="#FFFFFF" enable-background="new    " d="M10.3,13.2l0.6,2.3c0.5-0.6,1-1.2,1.6-1.7L11.8,11
				c-0.4,0.5-0.8,1-1.1,1.6C10.6,12.8,10.4,13,10.3,13.2z"/>
			<path opacity="0.369" fill="#FFFFFF" enable-background="new    " d="M10.3,13.2l0.6,2.3c0.5-0.6,1-1.2,1.6-1.7L11.8,11
				c-0.4,0.5-0.8,1-1.1,1.6C10.6,12.8,10.4,13,10.3,13.2z"/>
			<path opacity="0.369" fill="#FFFFFF" enable-background="new    " d="M10.3,13.2l0.6,2.3c0.5-0.6,1-1.2,1.6-1.7L11.8,11
				c-0.4,0.5-0.8,1-1.1,1.6C10.6,12.8,10.4,13,10.3,13.2z"/>
			<path opacity="0.369" fill="#FFFFFF" enable-background="new    " d="M17.2,9.4L17,8.6h-1.4c-0.1,0.1-0.2,0.1-0.3,0.2l-0.8,3.1
				c0.1-0.1,0.1-0.1,0.2-0.2C15.4,10.9,16.3,10.1,17.2,9.4z"/>
			<path opacity="0.369" fill="#FFFFFF" enable-background="new    " d="M17.2,9.4L17,8.6h-1.4c-0.1,0.1-0.2,0.1-0.3,0.2l-0.8,3.1
				c0.1-0.1,0.1-0.1,0.2-0.2C15.4,10.9,16.3,10.1,17.2,9.4z"/>
			<path opacity="0.369" fill="#FFFFFF" enable-background="new    " d="M17.2,9.4L17,8.6h-1.4c-0.1,0.1-0.2,0.1-0.3,0.2l-0.8,3.1
				c0.1-0.1,0.1-0.1,0.2-0.2C15.4,10.9,16.3,10.1,17.2,9.4z"/>
			<path opacity="0.369" fill="#FFFFFF" enable-background="new    " d="M17.2,9.4L17,8.6h-1.4c-0.1,0.1-0.2,0.1-0.3,0.2l-0.8,3.1
				c0.1-0.1,0.1-0.1,0.2-0.2C15.4,10.9,16.3,10.1,17.2,9.4z"/>
			<path opacity="0.369" fill="#FFFFFF" enable-background="new    " d="M10.3,13.2c0.1-0.2,0.3-0.4,0.4-0.6c0.4-0.5,0.8-1,1.1-1.6
				l0-0.2c-0.6,0.4-1.2,0.8-1.8,1.2L10.3,13.2z"/>
			<path opacity="0.369" fill="#FFFFFF" enable-background="new    " d="M10.3,13.2c0.1-0.2,0.3-0.4,0.4-0.6c0.4-0.5,0.8-1,1.1-1.6
				l0-0.2c-0.6,0.4-1.2,0.8-1.8,1.2L10.3,13.2z"/>
			<path opacity="0.369" fill="#FFFFFF" enable-background="new    " d="M10.3,13.2c0.1-0.2,0.3-0.4,0.4-0.6c0.4-0.5,0.8-1,1.1-1.6
				l0-0.2c-0.6,0.4-1.2,0.8-1.8,1.2L10.3,13.2z"/>
			<path opacity="0.369" fill="#FFFFFF" enable-background="new    " d="M10.3,13.2c0.1-0.2,0.3-0.4,0.4-0.6c0.4-0.5,0.8-1,1.1-1.6
				l0-0.2c-0.6,0.4-1.2,0.8-1.8,1.2L10.3,13.2z"/>
			<path opacity="0.369" fill="#FFFFFF" enable-background="new    " d="M10.3,13.2c0.1-0.2,0.3-0.4,0.4-0.6c0.4-0.5,0.8-1,1.1-1.6
				l0-0.2c-0.6,0.4-1.2,0.8-1.8,1.2L10.3,13.2z"/>
			<path opacity="0.369" fill="#FFFFFF" enable-background="new    " d="M10.3,13.2c0.1-0.2,0.3-0.4,0.4-0.6c0.4-0.5,0.8-1,1.1-1.6
				l0-0.2c-0.6,0.4-1.2,0.8-1.8,1.2L10.3,13.2z"/>
			<path opacity="0.369" fill="#FFFFFF" enable-background="new    " d="M16.3,12.8c0,0.1,0.1,0.2,0.1,0.3L18,19
				c0.3-0.2,0.5-0.3,0.8-0.5c0.6-0.3,1.2-0.6,1.9-0.9l1.8-7.1c0.1-0.3,0.2-0.3,0.5-0.3h0.3V8.8c-0.9,0.4-1.9,0.9-2.8,1.4l-1.3,5.6
				c-0.1,0.6-0.2,1.1-0.2,1.1h0c0,0,0-0.5-0.2-1.1l-1-3.9c-0.2,0.1-0.4,0.2-0.6,0.4C16.9,12.4,16.6,12.6,16.3,12.8z"/>
			<path opacity="0.369" fill="#FFFFFF" enable-background="new    " d="M16.3,12.8c0,0.1,0.1,0.2,0.1,0.3L18,19
				c0.3-0.2,0.5-0.3,0.8-0.5c0.6-0.3,1.2-0.6,1.9-0.9l1.8-7.1c0.1-0.3,0.2-0.3,0.5-0.3h0.3V8.8c-0.9,0.4-1.9,0.9-2.8,1.4l-1.3,5.6
				c-0.1,0.6-0.2,1.1-0.2,1.1h0c0,0,0-0.5-0.2-1.1l-1-3.9c-0.2,0.1-0.4,0.2-0.6,0.4C16.9,12.4,16.6,12.6,16.3,12.8z"/>
			<path opacity="0.369" fill="#FFFFFF" enable-background="new    " d="M16.3,12.8c0,0.1,0.1,0.2,0.1,0.3L18,19
				c0.3-0.2,0.5-0.3,0.8-0.5c0.6-0.3,1.2-0.6,1.9-0.9l1.8-7.1c0.1-0.3,0.2-0.3,0.5-0.3h0.3V8.8c-0.9,0.4-1.9,0.9-2.8,1.4l-1.3,5.6
				c-0.1,0.6-0.2,1.1-0.2,1.1h0c0,0,0-0.5-0.2-1.1l-1-3.9c-0.2,0.1-0.4,0.2-0.6,0.4C16.9,12.4,16.6,12.6,16.3,12.8z"/>
			<path opacity="0.369" fill="#FFFFFF" enable-background="new    " d="M16.3,12.8c0,0.1,0.1,0.2,0.1,0.3L18,19
				c0.3-0.2,0.5-0.3,0.8-0.5c0.6-0.3,1.2-0.6,1.9-0.9l1.8-7.1c0.1-0.3,0.2-0.3,0.5-0.3h0.3V8.8c-0.9,0.4-1.9,0.9-2.8,1.4l-1.3,5.6
				c-0.1,0.6-0.2,1.1-0.2,1.1h0c0,0,0-0.5-0.2-1.1l-1-3.9c-0.2,0.1-0.4,0.2-0.6,0.4C16.9,12.4,16.6,12.6,16.3,12.8z"/>
			<path opacity="0.369" fill="#FFFFFF" enable-background="new    " d="M11.3,17l0.6,2.2h2.3l1.7-6c-0.3,0.2-0.5,0.4-0.8,0.5
				c-0.5,0.4-1,0.8-1.5,1.2l-0.2,0.8c-0.2,0.6-0.2,1.1-0.2,1.1h0c0,0,0-0.5-0.2-1.1l-0.1-0.2C12.4,16,11.8,16.5,11.3,17
				C11.3,17,11.3,17,11.3,17z"/>
			<path opacity="0.369" fill="#FFFFFF" enable-background="new    " d="M11.3,17l0.6,2.2h2.3l1.7-6c-0.3,0.2-0.5,0.4-0.8,0.5
				c-0.5,0.4-1,0.8-1.5,1.2l-0.2,0.8c-0.2,0.6-0.2,1.1-0.2,1.1h0c0,0,0-0.5-0.2-1.1l-0.1-0.2C12.4,16,11.8,16.5,11.3,17
				C11.3,17,11.3,17,11.3,17z"/>
			<path opacity="0.369" fill="#FFFFFF" enable-background="new    " d="M11.3,17l0.6,2.2h2.3l1.7-6c-0.3,0.2-0.5,0.4-0.8,0.5
				c-0.5,0.4-1,0.8-1.5,1.2l-0.2,0.8c-0.2,0.6-0.2,1.1-0.2,1.1h0c0,0,0-0.5-0.2-1.1l-0.1-0.2C12.4,16,11.8,16.5,11.3,17
				C11.3,17,11.3,17,11.3,17z"/>
			<path opacity="0.369" fill="#FFFFFF" enable-background="new    " d="M11.3,17l0.6,2.2h2.3l1.7-6c-0.3,0.2-0.5,0.4-0.8,0.5
				c-0.5,0.4-1,0.8-1.5,1.2l-0.2,0.8c-0.2,0.6-0.2,1.1-0.2,1.1h0c0,0,0-0.5-0.2-1.1l-0.1-0.2C12.4,16,11.8,16.5,11.3,17
				C11.3,17,11.3,17,11.3,17z"/>
			<path opacity="0.369" fill="#FFFFFF" enable-background="new    " d="M23.3,8.5H22c-0.7,0-1.2,0.2-1.3,0.9l-0.2,0.8
				c0.9-0.5,1.8-1,2.8-1.4L23.3,8.5L23.3,8.5z"/>
			<path opacity="0.369" fill="#FFFFFF" enable-background="new    " d="M23.3,8.5H22c-0.7,0-1.2,0.2-1.3,0.9l-0.2,0.8
				c0.9-0.5,1.8-1,2.8-1.4L23.3,8.5L23.3,8.5z"/>
			<path opacity="0.369" fill="#FFFFFF" enable-background="new    " d="M23.3,8.5H22c-0.7,0-1.2,0.2-1.3,0.9l-0.2,0.8
				c0.9-0.5,1.8-1,2.8-1.4L23.3,8.5L23.3,8.5z"/>
			<path opacity="0.369" fill="#FFFFFF" enable-background="new    " d="M23.3,8.5H22c-0.7,0-1.2,0.2-1.3,0.9l-0.2,0.8
				c0.9-0.5,1.8-1,2.8-1.4L23.3,8.5L23.3,8.5z"/>
			<path opacity="0.369" fill="#FFFFFF" enable-background="new    " d="M23.3,8.5H22c-0.7,0-1.2,0.2-1.3,0.9l-0.2,0.8
				c0.9-0.5,1.8-1,2.8-1.4L23.3,8.5L23.3,8.5z"/>
			<path opacity="0.369" fill="#FFFFFF" enable-background="new    " d="M23.3,8.5H22c-0.7,0-1.2,0.2-1.3,0.9l-0.2,0.8
				c0.9-0.5,1.8-1,2.8-1.4L23.3,8.5L23.3,8.5z"/>
			<path opacity="0.369" fill="#FFFFFF" enable-background="new    " d="M11.3,17C11.3,17,11.3,17,11.3,17c0.6-0.5,1.1-1,1.6-1.5
				l-0.4-1.8c-0.5,0.6-1.1,1.1-1.6,1.7L11.3,17z"/>
			<path opacity="0.369" fill="#FFFFFF" enable-background="new    " d="M11.3,17C11.3,17,11.3,17,11.3,17c0.6-0.5,1.1-1,1.6-1.5
				l-0.4-1.8c-0.5,0.6-1.1,1.1-1.6,1.7L11.3,17z"/>
			<path opacity="0.369" fill="#FFFFFF" enable-background="new    " d="M11.3,17C11.3,17,11.3,17,11.3,17c0.6-0.5,1.1-1,1.6-1.5
				l-0.4-1.8c-0.5,0.6-1.1,1.1-1.6,1.7L11.3,17z"/>
			<path opacity="0.369" fill="#FFFFFF" enable-background="new    " d="M11.3,17C11.3,17,11.3,17,11.3,17c0.6-0.5,1.1-1,1.6-1.5
				l-0.4-1.8c-0.5,0.6-1.1,1.1-1.6,1.7L11.3,17z"/>
			<path opacity="0.369" fill="#FFFFFF" enable-background="new    " d="M11.3,17C11.3,17,11.3,17,11.3,17c0.6-0.5,1.1-1,1.6-1.5
				l-0.4-1.8c-0.5,0.6-1.1,1.1-1.6,1.7L11.3,17z"/>
			<path opacity="0.369" fill="#FFFFFF" enable-background="new    " d="M11.3,17C11.3,17,11.3,17,11.3,17c0.6-0.5,1.1-1,1.6-1.5
				l-0.4-1.8c-0.5,0.6-1.1,1.1-1.6,1.7L11.3,17z"/>
			<path opacity="0.369" fill="#FFFFFF" enable-background="new    " d="M15.8,13.2L15.8,13.2c0.2-0.7,0.3-1.3,0.3-1.3h0
				c0,0,0.1,0.4,0.2,1c0.3-0.2,0.6-0.4,0.9-0.6c0.2-0.1,0.4-0.2,0.6-0.4l-0.6-2.4c-0.9,0.8-1.7,1.5-2.6,2.3
				c-0.1,0.1-0.1,0.1-0.2,0.2l-0.8,3.1c0.5-0.4,1-0.8,1.5-1.2C15.3,13.5,15.6,13.3,15.8,13.2z"/>
			<path opacity="0.369" fill="#FFFFFF" enable-background="new    " d="M15.8,13.2L15.8,13.2c0.2-0.7,0.3-1.3,0.3-1.3h0
				c0,0,0.1,0.4,0.2,1c0.3-0.2,0.6-0.4,0.9-0.6c0.2-0.1,0.4-0.2,0.6-0.4l-0.6-2.4c-0.9,0.8-1.7,1.5-2.6,2.3
				c-0.1,0.1-0.1,0.1-0.2,0.2l-0.8,3.1c0.5-0.4,1-0.8,1.5-1.2C15.3,13.5,15.6,13.3,15.8,13.2z"/>
			<path opacity="0.369" fill="#FFFFFF" enable-background="new    " d="M15.8,13.2L15.8,13.2c0.2-0.7,0.3-1.3,0.3-1.3h0
				c0,0,0.1,0.4,0.2,1c0.3-0.2,0.6-0.4,0.9-0.6c0.2-0.1,0.4-0.2,0.6-0.4l-0.6-2.4c-0.9,0.8-1.7,1.5-2.6,2.3
				c-0.1,0.1-0.1,0.1-0.2,0.2l-0.8,3.1c0.5-0.4,1-0.8,1.5-1.2C15.3,13.5,15.6,13.3,15.8,13.2z"/>
			<path opacity="0.369" fill="#FFFFFF" enable-background="new    " d="M15.8,13.2L15.8,13.2c0.2-0.7,0.3-1.3,0.3-1.3h0
				c0,0,0.1,0.4,0.2,1c0.3-0.2,0.6-0.4,0.9-0.6c0.2-0.1,0.4-0.2,0.6-0.4l-0.6-2.4c-0.9,0.8-1.7,1.5-2.6,2.3
				c-0.1,0.1-0.1,0.1-0.2,0.2l-0.8,3.1c0.5-0.4,1-0.8,1.5-1.2C15.3,13.5,15.6,13.3,15.8,13.2z"/>
			<path opacity="0.369" fill="#FFFFFF" enable-background="new    " d="M15.8,13.2L15.8,13.2c0.2-0.7,0.3-1.3,0.3-1.3h0
				c0,0,0.1,0.4,0.2,1c0.3-0.2,0.6-0.4,0.9-0.6c0.2-0.1,0.4-0.2,0.6-0.4l-0.6-2.4c-0.9,0.8-1.7,1.5-2.6,2.3
				c-0.1,0.1-0.1,0.1-0.2,0.2l-0.8,3.1c0.5-0.4,1-0.8,1.5-1.2C15.3,13.5,15.6,13.3,15.8,13.2z"/>
			<path opacity="0.369" fill="#FFFFFF" enable-background="new    " d="M15.8,13.2L15.8,13.2c0.2-0.7,0.3-1.3,0.3-1.3h0
				c0,0,0.1,0.4,0.2,1c0.3-0.2,0.6-0.4,0.9-0.6c0.2-0.1,0.4-0.2,0.6-0.4l-0.6-2.4c-0.9,0.8-1.7,1.5-2.6,2.3
				c-0.1,0.1-0.1,0.1-0.2,0.2l-0.8,3.1c0.5-0.4,1-0.8,1.5-1.2C15.3,13.5,15.6,13.3,15.8,13.2z"/>
		</g>
	</g>
</g>
</svg>
