<?xml version="1.0" encoding="utf-8"?>
<!-- Generator: Adobe Illustrator 18.1.1, SVG Export Plug-In . SVG Version: 6.00 Build 0)  -->
<svg version="1.1" id="Layer_1" xmlns="http://www.w3.org/2000/svg" xmlns:xlink="http://www.w3.org/1999/xlink" x="0px" y="0px"
	 viewBox="0 0 301 497.6" enable-background="new 0 0 301 497.6" xml:space="preserve">
<g>
	<g>
		<path fill="#FFFFFF" d="M143.1,497.6H0L157.3,0H301L143.1,497.6z"/>
	</g>
</g>
<g>
	<g>
		<path opacity="0.369" fill="#FFFFFF" enable-background="new    " d="M96,33.1c0.9-0.8,1.9-1.7,2.8-2.5c-1.4-0.6-2.4-1.3-2.4-2.4
			c0-1.2,1.2-2,2.8-2c1.3,0,2.5,0.6,2.5,1.5v0.5c1-0.8,2-1.6,3-2.4c-0.6-1.6-2.5-2.4-4.2-2.7c-1.9,1.6-3.7,3.2-5.5,4.9
			c-0.6,0.6-1.2,1.3-1.9,1.9C93.6,31.4,94.7,32.3,96,33.1z"/>
		<path opacity="0.369" fill="#FFFFFF" enable-background="new    " d="M96,33.1c0.9-0.8,1.9-1.7,2.8-2.5c-1.4-0.6-2.4-1.3-2.4-2.4
			c0-1.2,1.2-2,2.8-2c1.3,0,2.5,0.6,2.5,1.5v0.5c1-0.8,2-1.6,3-2.4c-0.6-1.6-2.5-2.4-4.2-2.7c-1.9,1.6-3.7,3.2-5.5,4.9
			c-0.6,0.6-1.2,1.3-1.9,1.9C93.6,31.4,94.7,32.3,96,33.1z"/>
		<path opacity="0.369" fill="#FFFFFF" enable-background="new    " d="M101.8,37.2c0,0.5-0.2,1-0.5,1.3c1.3-1,2.5-2,3.8-2.9
			c-0.8-3-4.1-4-6.4-5c-0.9,0.8-1.9,1.6-2.8,2.5C98.6,34.6,101.8,35.3,101.8,37.2z"/>
		<path opacity="0.369" fill="#FFFFFF" enable-background="new    " d="M101.8,37.2c0,0.5-0.2,1-0.5,1.3c1.3-1,2.5-2,3.8-2.9
			c-0.8-3-4.1-4-6.4-5c-0.9,0.8-1.9,1.6-2.8,2.5C98.6,34.6,101.8,35.3,101.8,37.2z"/>
		<path opacity="0.369" fill="#FFFFFF" enable-background="new    " d="M101.8,37.2c0,0.5-0.2,1-0.5,1.3c1.3-1,2.5-2,3.8-2.9
			c-0.8-3-4.1-4-6.4-5c-0.9,0.8-1.9,1.6-2.8,2.5C98.6,34.6,101.8,35.3,101.8,37.2z"/>
		<path opacity="0.369" fill="#FFFFFF" enable-background="new    " d="M101.8,37.2c0,0.5-0.2,1-0.5,1.3c1.3-1,2.5-2,3.8-2.9
			c-0.8-3-4.1-4-6.4-5c-0.9,0.8-1.9,1.6-2.8,2.5C98.6,34.6,101.8,35.3,101.8,37.2z"/>
		<path opacity="0.369" fill="#FFFFFF" enable-background="new    " d="M101.7,28.5h3.1v-1.8c0-0.3-0.1-0.7-0.2-1
			c-1,0.8-2,1.6-3,2.4V28.5z"/>
		<path opacity="0.369" fill="#FFFFFF" enable-background="new    " d="M101.7,28.5h3.1v-1.8c0-0.3-0.1-0.7-0.2-1
			c-1,0.8-2,1.6-3,2.4V28.5z"/>
		<path opacity="0.369" fill="#FFFFFF" enable-background="new    " d="M101.7,28.5h3.1v-1.8c0-0.3-0.1-0.7-0.2-1
			c-1,0.8-2,1.6-3,2.4V28.5z"/>
		<path opacity="0.369" fill="#FFFFFF" enable-background="new    " d="M101.7,28.5h3.1v-1.8c0-0.3-0.1-0.7-0.2-1
			c-1,0.8-2,1.6-3,2.4V28.5z"/>
		<path opacity="0.369" fill="#FFFFFF" enable-background="new    " d="M99.1,39.5c-2.6,0-4.6-2.2-4.6-2.2l-2,2.5
			c0,0,1.5,1.8,4.1,2.6c1.3-1.1,2.6-2.1,4-3.2C100.2,39.4,99.7,39.5,99.1,39.5z"/>
		<path opacity="0.369" fill="#FFFFFF" enable-background="new    " d="M99.1,39.5c-2.6,0-4.6-2.2-4.6-2.2l-2,2.5
			c0,0,1.5,1.8,4.1,2.6c1.3-1.1,2.6-2.1,4-3.2C100.2,39.4,99.7,39.5,99.1,39.5z"/>
		<path opacity="0.369" fill="#FFFFFF" enable-background="new    " d="M99.1,39.5c-2.6,0-4.6-2.2-4.6-2.2l-2,2.5
			c0,0,1.5,1.8,4.1,2.6c1.3-1.1,2.6-2.1,4-3.2C100.2,39.4,99.7,39.5,99.1,39.5z"/>
		<path opacity="0.369" fill="#FFFFFF" enable-background="new    " d="M99.1,39.5c-2.6,0-4.6-2.2-4.6-2.2l-2,2.5
			c0,0,1.5,1.8,4.1,2.6c1.3-1.1,2.6-2.1,4-3.2C100.2,39.4,99.7,39.5,99.1,39.5z"/>
		<path opacity="0.369" fill="#FFFFFF" enable-background="new    " d="M100.5,23.2c-0.4-0.1-0.9-0.1-1.3-0.1
			c-3.7,0-6.3,2.3-6.3,5.3c0,0.6,0.1,1.1,0.2,1.5c0.6-0.6,1.2-1.3,1.9-1.9C96.8,26.4,98.7,24.7,100.5,23.2z"/>
		<path opacity="0.369" fill="#FFFFFF" enable-background="new    " d="M100.5,23.2c-0.4-0.1-0.9-0.1-1.3-0.1
			c-3.7,0-6.3,2.3-6.3,5.3c0,0.6,0.1,1.1,0.2,1.5c0.6-0.6,1.2-1.3,1.9-1.9C96.8,26.4,98.7,24.7,100.5,23.2z"/>
		<path opacity="0.369" fill="#FFFFFF" enable-background="new    " d="M100.5,23.2c-0.4-0.1-0.9-0.1-1.3-0.1
			c-3.7,0-6.3,2.3-6.3,5.3c0,0.6,0.1,1.1,0.2,1.5c0.6-0.6,1.2-1.3,1.9-1.9C96.8,26.4,98.7,24.7,100.5,23.2z"/>
		<path opacity="0.369" fill="#FFFFFF" enable-background="new    " d="M100.5,23.2c-0.4-0.1-0.9-0.1-1.3-0.1
			c-3.7,0-6.3,2.3-6.3,5.3c0,0.6,0.1,1.1,0.2,1.5c0.6-0.6,1.2-1.3,1.9-1.9C96.8,26.4,98.7,24.7,100.5,23.2z"/>
		<path opacity="0.369" fill="#FFFFFF" enable-background="new    " d="M100.7,39.1c-1.3,1-2.7,2.1-4,3.2c0.7,0.2,1.5,0.3,2.4,0.3
			c4,0,6.3-2.6,6.3-5.6c0-0.5-0.1-1-0.2-1.4c-1.3,1-2.5,2-3.8,2.9C101.2,38.8,100.9,39,100.7,39.1z"/>
		<path opacity="0.369" fill="#FFFFFF" enable-background="new    " d="M100.7,39.1c-1.3,1-2.7,2.1-4,3.2c0.7,0.2,1.5,0.3,2.4,0.3
			c4,0,6.3-2.6,6.3-5.6c0-0.5-0.1-1-0.2-1.4c-1.3,1-2.5,2-3.8,2.9C101.2,38.8,100.9,39,100.7,39.1z"/>
		<path opacity="0.369" fill="#FFFFFF" enable-background="new    " d="M100.7,39.1c-1.3,1-2.7,2.1-4,3.2c0.7,0.2,1.5,0.3,2.4,0.3
			c4,0,6.3-2.6,6.3-5.6c0-0.5-0.1-1-0.2-1.4c-1.3,1-2.5,2-3.8,2.9C101.2,38.8,100.9,39,100.7,39.1z"/>
		<path opacity="0.369" fill="#FFFFFF" enable-background="new    " d="M100.7,39.1c-1.3,1-2.7,2.1-4,3.2c0.7,0.2,1.5,0.3,2.4,0.3
			c4,0,6.3-2.6,6.3-5.6c0-0.5-0.1-1-0.2-1.4c-1.3,1-2.5,2-3.8,2.9C101.2,38.8,100.9,39,100.7,39.1z"/>
		<path opacity="0.369" fill="#FFFFFF" enable-background="new    " d="M100.7,39.1c-1.3,1-2.7,2.1-4,3.2c0.7,0.2,1.5,0.3,2.4,0.3
			c4,0,6.3-2.6,6.3-5.6c0-0.5-0.1-1-0.2-1.4c-1.3,1-2.5,2-3.8,2.9C101.2,38.8,100.9,39,100.7,39.1z"/>
		<path opacity="0.369" fill="#FFFFFF" enable-background="new    " d="M100.7,39.1c-1.3,1-2.7,2.1-4,3.2c0.7,0.2,1.5,0.3,2.4,0.3
			c4,0,6.3-2.6,6.3-5.6c0-0.5-0.1-1-0.2-1.4c-1.3,1-2.5,2-3.8,2.9C101.2,38.8,100.9,39,100.7,39.1z"/>
	</g>
	<g>
		<path opacity="0.369" fill="#FFFFFF" enable-background="new    " d="M60.2,25.9L76.1,10l-1.7-1.7L50.7,31.9l0,0l-0.6,0.6l1.5,1.5
			C54.3,31.2,57.2,28.5,60.2,25.9z"/>
		<path opacity="0.369" fill="#FFFFFF" enable-background="new    " d="M60.2,25.9L76.1,10l-1.7-1.7L50.7,31.9l0,0l-0.6,0.6l1.5,1.5
			C54.3,31.2,57.2,28.5,60.2,25.9z"/>
		<path opacity="0.369" fill="#FFFFFF" enable-background="new    " d="M60.2,25.9L76.1,10l-1.7-1.7L50.7,31.9l0,0l-0.6,0.6l1.5,1.5
			C54.3,31.2,57.2,28.5,60.2,25.9z"/>
		<path opacity="0.369" fill="#FFFFFF" enable-background="new    " d="M60.2,25.9L76.1,10l-1.7-1.7L50.7,31.9l0,0l-0.6,0.6l1.5,1.5
			C54.3,31.2,57.2,28.5,60.2,25.9z"/>
		<path opacity="0.369" fill="#FFFFFF" enable-background="new    " d="M68.4,50.9l5.4,5.4l1.7-1.7l-5.3-5.3
			c-0.2,0.2-0.4,0.4-0.6,0.5C69.2,50.1,68.8,50.5,68.4,50.9z"/>
		<path opacity="0.369" fill="#FFFFFF" enable-background="new    " d="M68.4,50.9l5.4,5.4l1.7-1.7l-5.3-5.3
			c-0.2,0.2-0.4,0.4-0.6,0.5C69.2,50.1,68.8,50.5,68.4,50.9z"/>
		<path opacity="0.369" fill="#FFFFFF" enable-background="new    " d="M60.3,41.8c0.3-0.5,0.7-1,1-1.4l-7.8-7.8l6.6-6.6
			c-3,2.6-5.9,5.3-8.7,8.1l8.4,8.4C60,42.2,60.1,42,60.3,41.8z"/>
		<path opacity="0.369" fill="#FFFFFF" enable-background="new    " d="M60.3,41.8c0.3-0.5,0.7-1,1-1.4l-7.8-7.8l6.6-6.6
			c-3,2.6-5.9,5.3-8.7,8.1l8.4,8.4C60,42.2,60.1,42,60.3,41.8z"/>
		<path opacity="0.369" fill="#FFFFFF" enable-background="new    " d="M60.3,41.8c0.3-0.5,0.7-1,1-1.4l-7.8-7.8l6.6-6.6
			c-3,2.6-5.9,5.3-8.7,8.1l8.4,8.4C60,42.2,60.1,42,60.3,41.8z"/>
		<path opacity="0.369" fill="#FFFFFF" enable-background="new    " d="M60.3,41.8c0.3-0.5,0.7-1,1-1.4l-7.8-7.8l6.6-6.6
			c-3,2.6-5.9,5.3-8.7,8.1l8.4,8.4C60,42.2,60.1,42,60.3,41.8z"/>
		<path opacity="0.369" fill="#FFFFFF" enable-background="new    " d="M60.3,41.8c0.3-0.5,0.7-1,1-1.4l-7.8-7.8l6.6-6.6
			c-3,2.6-5.9,5.3-8.7,8.1l8.4,8.4C60,42.2,60.1,42,60.3,41.8z"/>
		<path opacity="0.369" fill="#FFFFFF" enable-background="new    " d="M60.3,41.8c0.3-0.5,0.7-1,1-1.4l-7.8-7.8l6.6-6.6
			c-3,2.6-5.9,5.3-8.7,8.1l8.4,8.4C60,42.2,60.1,42,60.3,41.8z"/>
		<path opacity="0.369" fill="#FFFFFF" enable-background="new    " d="M62.6,44.1c0,0.3,0,0.7,0,1l5.8,5.8c0.4-0.4,0.8-0.8,1.2-1.2
			c0.2-0.2,0.4-0.4,0.6-0.5l-6.9-6.9c-0.2,0.3-0.4,0.6-0.6,0.9C62.7,43.5,62.6,43.8,62.6,44.1z"/>
		<path opacity="0.369" fill="#FFFFFF" enable-background="new    " d="M62.6,44.1c0,0.3,0,0.7,0,1l5.8,5.8c0.4-0.4,0.8-0.8,1.2-1.2
			c0.2-0.2,0.4-0.4,0.6-0.5l-6.9-6.9c-0.2,0.3-0.4,0.6-0.6,0.9C62.7,43.5,62.6,43.8,62.6,44.1z"/>
		<path opacity="0.369" fill="#FFFFFF" enable-background="new    " d="M62.6,44.1c0,0.3,0,0.7,0,1l5.8,5.8c0.4-0.4,0.8-0.8,1.2-1.2
			c0.2-0.2,0.4-0.4,0.6-0.5l-6.9-6.9c-0.2,0.3-0.4,0.6-0.6,0.9C62.7,43.5,62.6,43.8,62.6,44.1z"/>
		<path opacity="0.369" fill="#FFFFFF" enable-background="new    " d="M62.6,44.1c0,0.3,0,0.7,0,1l5.8,5.8c0.4-0.4,0.8-0.8,1.2-1.2
			c0.2-0.2,0.4-0.4,0.6-0.5l-6.9-6.9c-0.2,0.3-0.4,0.6-0.6,0.9C62.7,43.5,62.6,43.8,62.6,44.1z"/>
		<path opacity="0.369" fill="#FFFFFF" enable-background="new    " d="M62.7,43.2c0.2-0.3,0.4-0.6,0.6-0.9l-0.4-0.4
			C62.8,42.3,62.8,42.8,62.7,43.2z"/>
		<path opacity="0.369" fill="#FFFFFF" enable-background="new    " d="M62.7,43.2c0.2-0.3,0.4-0.6,0.6-0.9l-0.4-0.4
			C62.8,42.3,62.8,42.8,62.7,43.2z"/>
		<path opacity="0.369" fill="#FFFFFF" enable-background="new    " d="M62.7,43.2c0.2-0.3,0.4-0.6,0.6-0.9l-0.4-0.4
			C62.8,42.3,62.8,42.8,62.7,43.2z"/>
		<path opacity="0.369" fill="#FFFFFF" enable-background="new    " d="M62.7,43.2c0.2-0.3,0.4-0.6,0.6-0.9l-0.4-0.4
			C62.8,42.3,62.8,42.8,62.7,43.2z"/>
		<path opacity="0.369" fill="#FFFFFF" enable-background="new    " d="M62.7,43.2c0.2-0.3,0.4-0.6,0.6-0.9l-0.4-0.4
			C62.8,42.3,62.8,42.8,62.7,43.2z"/>
		<path opacity="0.369" fill="#FFFFFF" enable-background="new    " d="M62.7,43.2c0.2-0.3,0.4-0.6,0.6-0.9l-0.4-0.4
			C62.8,42.3,62.8,42.8,62.7,43.2z"/>
		<path opacity="0.369" fill="#FFFFFF" enable-background="new    " d="M62.7,43.2c-0.3,0.4-0.5,0.8-0.8,1.3l0.7,0.7
			c0-0.3,0-0.7,0-1C62.6,43.8,62.7,43.5,62.7,43.2z"/>
		<path opacity="0.369" fill="#FFFFFF" enable-background="new    " d="M62.7,43.2c-0.3,0.4-0.5,0.8-0.8,1.3l0.7,0.7
			c0-0.3,0-0.7,0-1C62.6,43.8,62.7,43.5,62.7,43.2z"/>
		<path opacity="0.369" fill="#FFFFFF" enable-background="new    " d="M62.7,43.2c-0.3,0.4-0.5,0.8-0.8,1.3l0.7,0.7
			c0-0.3,0-0.7,0-1C62.6,43.8,62.7,43.5,62.7,43.2z"/>
		<path opacity="0.369" fill="#FFFFFF" enable-background="new    " d="M62.7,43.2c-0.3,0.4-0.5,0.8-0.8,1.3l0.7,0.7
			c0-0.3,0-0.7,0-1C62.6,43.8,62.7,43.5,62.7,43.2z"/>
		<path opacity="0.369" fill="#FFFFFF" enable-background="new    " d="M62.7,43.2c-0.3,0.4-0.5,0.8-0.8,1.3l0.7,0.7
			c0-0.3,0-0.7,0-1C62.6,43.8,62.7,43.5,62.7,43.2z"/>
		<path opacity="0.369" fill="#FFFFFF" enable-background="new    " d="M62.7,43.2c-0.3,0.4-0.5,0.8-0.8,1.3l0.7,0.7
			c0-0.3,0-0.7,0-1C62.6,43.8,62.7,43.5,62.7,43.2z"/>
		<path opacity="0.369" fill="#FFFFFF" enable-background="new    " d="M59.9,42.4l2,2c0.3-0.4,0.5-0.8,0.8-1.3
			c0.1-0.4,0.1-0.8,0.2-1.2l-1.6-1.6c-0.3,0.5-0.7,1-1,1.4C60.1,42,60,42.2,59.9,42.4z"/>
		<path opacity="0.369" fill="#FFFFFF" enable-background="new    " d="M59.9,42.4l2,2c0.3-0.4,0.5-0.8,0.8-1.3
			c0.1-0.4,0.1-0.8,0.2-1.2l-1.6-1.6c-0.3,0.5-0.7,1-1,1.4C60.1,42,60,42.2,59.9,42.4z"/>
		<path opacity="0.369" fill="#FFFFFF" enable-background="new    " d="M59.9,42.4l2,2c0.3-0.4,0.5-0.8,0.8-1.3
			c0.1-0.4,0.1-0.8,0.2-1.2l-1.6-1.6c-0.3,0.5-0.7,1-1,1.4C60.1,42,60,42.2,59.9,42.4z"/>
		<path opacity="0.369" fill="#FFFFFF" enable-background="new    " d="M59.9,42.4l2,2c0.3-0.4,0.5-0.8,0.8-1.3
			c0.1-0.4,0.1-0.8,0.2-1.2l-1.6-1.6c-0.3,0.5-0.7,1-1,1.4C60.1,42,60,42.2,59.9,42.4z"/>
		<path opacity="0.369" fill="#FFFFFF" enable-background="new    " d="M59.9,42.4l2,2c0.3-0.4,0.5-0.8,0.8-1.3
			c0.1-0.4,0.1-0.8,0.2-1.2l-1.6-1.6c-0.3,0.5-0.7,1-1,1.4C60.1,42,60,42.2,59.9,42.4z"/>
		<path opacity="0.369" fill="#FFFFFF" enable-background="new    " d="M59.9,42.4l2,2c0.3-0.4,0.5-0.8,0.8-1.3
			c0.1-0.4,0.1-0.8,0.2-1.2l-1.6-1.6c-0.3,0.5-0.7,1-1,1.4C60.1,42,60,42.2,59.9,42.4z"/>
		<path opacity="0.369" fill="#FFFFFF" enable-background="new    " d="M59.9,42.4l2,2c0.3-0.4,0.5-0.8,0.8-1.3
			c0.1-0.4,0.1-0.8,0.2-1.2l-1.6-1.6c-0.3,0.5-0.7,1-1,1.4C60.1,42,60,42.2,59.9,42.4z"/>
		<path opacity="0.369" fill="#FFFFFF" enable-background="new    " d="M59.9,42.4l2,2c0.3-0.4,0.5-0.8,0.8-1.3
			c0.1-0.4,0.1-0.8,0.2-1.2l-1.6-1.6c-0.3,0.5-0.7,1-1,1.4C60.1,42,60,42.2,59.9,42.4z"/>
	</g>
	<g>
		<path opacity="0.369" fill="#FFFFFF" enable-background="new    " d="M96.3,54.5l1.8,1.8l1.8-1.8c-0.7-0.5-1.4-1-2.1-1.5
			L96.3,54.5z"/>
		<path opacity="0.369" fill="#FFFFFF" enable-background="new    " d="M96.3,54.5l1.8,1.8l1.8-1.8c-0.7-0.5-1.4-1-2.1-1.5
			L96.3,54.5z"/>
		<path opacity="0.369" fill="#FFFFFF" enable-background="new    " d="M101.5,16.6c-0.2-0.1-0.4-0.2-0.6-0.3l16.8,16.8L97.9,52.9
			c0.7,0.5,1.4,1,2.1,1.5l21.3-21.3l-1.7-1.7l0,0l-10.4-10.4c-1-0.6-2-1.3-3-1.9C104.6,18.2,103.1,17.4,101.5,16.6z"/>
		<path opacity="0.369" fill="#FFFFFF" enable-background="new    " d="M101.5,16.6c-0.2-0.1-0.4-0.2-0.6-0.3l16.8,16.8L97.9,52.9
			c0.7,0.5,1.4,1,2.1,1.5l21.3-21.3l-1.7-1.7l0,0l-10.4-10.4c-1-0.6-2-1.3-3-1.9C104.6,18.2,103.1,17.4,101.5,16.6z"/>
		<path opacity="0.369" fill="#FFFFFF" enable-background="new    " d="M101.5,16.6c-0.2-0.1-0.4-0.2-0.6-0.3l16.8,16.8L97.9,52.9
			c0.7,0.5,1.4,1,2.1,1.5l21.3-21.3l-1.7-1.7l0,0l-10.4-10.4c-1-0.6-2-1.3-3-1.9C104.6,18.2,103.1,17.4,101.5,16.6z"/>
		<path opacity="0.369" fill="#FFFFFF" enable-background="new    " d="M101.5,16.6c-0.2-0.1-0.4-0.2-0.6-0.3l16.8,16.8L97.9,52.9
			c0.7,0.5,1.4,1,2.1,1.5l21.3-21.3l-1.7-1.7l0,0l-10.4-10.4c-1-0.6-2-1.3-3-1.9C104.6,18.2,103.1,17.4,101.5,16.6z"/>
		<path opacity="0.369" fill="#FFFFFF" enable-background="new    " d="M94.6,10l6.3,6.3c0.2,0.1,0.4,0.2,0.6,0.3
			c1.5,0.8,3.1,1.6,4.6,2.5c1,0.6,2,1.3,3,1.9L96.4,8.2L94.6,10z"/>
		<path opacity="0.369" fill="#FFFFFF" enable-background="new    " d="M94.6,10l6.3,6.3c0.2,0.1,0.4,0.2,0.6,0.3
			c1.5,0.8,3.1,1.6,4.6,2.5c1,0.6,2,1.3,3,1.9L96.4,8.2L94.6,10z"/>
		<path opacity="0.369" fill="#FFFFFF" enable-background="new    " d="M94.6,10l6.3,6.3c0.2,0.1,0.4,0.2,0.6,0.3
			c1.5,0.8,3.1,1.6,4.6,2.5c1,0.6,2,1.3,3,1.9L96.4,8.2L94.6,10z"/>
		<path opacity="0.369" fill="#FFFFFF" enable-background="new    " d="M94.6,10l6.3,6.3c0.2,0.1,0.4,0.2,0.6,0.3
			c1.5,0.8,3.1,1.6,4.6,2.5c1,0.6,2,1.3,3,1.9L96.4,8.2L94.6,10z"/>
		<path opacity="0.369" fill="#FFFFFF" enable-background="new    " d="M94.6,10l6.3,6.3c0.2,0.1,0.4,0.2,0.6,0.3
			c1.5,0.8,3.1,1.6,4.6,2.5c1,0.6,2,1.3,3,1.9L96.4,8.2L94.6,10z"/>
		<path opacity="0.369" fill="#FFFFFF" enable-background="new    " d="M94.6,10l6.3,6.3c0.2,0.1,0.4,0.2,0.6,0.3
			c1.5,0.8,3.1,1.6,4.6,2.5c1,0.6,2,1.3,3,1.9L96.4,8.2L94.6,10z"/>
	</g>
	<g>
		<path opacity="0.369" fill="#FFFFFF" enable-background="new    " d="M77.2,23.4l-0.1,0.3c0.2-0.1,0.3-0.2,0.5-0.3H77.2z"/>
		<path opacity="0.369" fill="#FFFFFF" enable-background="new    " d="M77.2,23.4l-0.1,0.3c0.2-0.1,0.3-0.2,0.5-0.3H77.2z"/>
		<path opacity="0.369" fill="#FFFFFF" enable-background="new    " d="M65.8,24.2c0.4-0.3,0.7-0.5,1.1-0.8h-1.1V24.2z"/>
		<path opacity="0.369" fill="#FFFFFF" enable-background="new    " d="M65.8,24.2c0.4-0.3,0.7-0.5,1.1-0.8h-1.1V24.2z"/>
		<path opacity="0.369" fill="#FFFFFF" enable-background="new    " d="M65.8,26.3h0.5c0.5,0,0.7,0.1,0.9,0.6l0.7,2.7
			c1-0.7,2.1-1.5,3.1-2.2l-0.6-2.6c-0.3-1.2-1-1.5-2.3-1.5h-1.2c-0.4,0.3-0.7,0.5-1.1,0.8V26.3z"/>
		<path opacity="0.369" fill="#FFFFFF" enable-background="new    " d="M65.8,26.3h0.5c0.5,0,0.7,0.1,0.9,0.6l0.7,2.7
			c1-0.7,2.1-1.5,3.1-2.2l-0.6-2.6c-0.3-1.2-1-1.5-2.3-1.5h-1.2c-0.4,0.3-0.7,0.5-1.1,0.8V26.3z"/>
		<path opacity="0.369" fill="#FFFFFF" enable-background="new    " d="M65.8,26.3h0.5c0.5,0,0.7,0.1,0.9,0.6l0.7,2.7
			c1-0.7,2.1-1.5,3.1-2.2l-0.6-2.6c-0.3-1.2-1-1.5-2.3-1.5h-1.2c-0.4,0.3-0.7,0.5-1.1,0.8V26.3z"/>
		<path opacity="0.369" fill="#FFFFFF" enable-background="new    " d="M65.8,26.3h0.5c0.5,0,0.7,0.1,0.9,0.6l0.7,2.7
			c1-0.7,2.1-1.5,3.1-2.2l-0.6-2.6c-0.3-1.2-1-1.5-2.3-1.5h-1.2c-0.4,0.3-0.7,0.5-1.1,0.8V26.3z"/>
		<path opacity="0.369" fill="#FFFFFF" enable-background="new    " d="M82,42l0.1,0.3h4l0.7-2.7c-1.1,0.5-2.2,1.1-3.3,1.6
			C83,41.5,82.5,41.8,82,42z"/>
		<path opacity="0.369" fill="#FFFFFF" enable-background="new    " d="M82,42l0.1,0.3h4l0.7-2.7c-1.1,0.5-2.2,1.1-3.3,1.6
			C83,41.5,82.5,41.8,82,42z"/>
		<path opacity="0.369" fill="#FFFFFF" enable-background="new    " d="M68.4,31.7l1,4c0.9-1,1.8-2.1,2.8-3.1l-1.1-4.8
			c-0.7,0.9-1.3,1.8-2,2.8C68.8,30.9,68.6,31.3,68.4,31.7z"/>
		<path opacity="0.369" fill="#FFFFFF" enable-background="new    " d="M68.4,31.7l1,4c0.9-1,1.8-2.1,2.8-3.1l-1.1-4.8
			c-0.7,0.9-1.3,1.8-2,2.8C68.8,30.9,68.6,31.3,68.4,31.7z"/>
		<path opacity="0.369" fill="#FFFFFF" enable-background="new    " d="M68.4,31.7l1,4c0.9-1,1.8-2.1,2.8-3.1l-1.1-4.8
			c-0.7,0.9-1.3,1.8-2,2.8C68.8,30.9,68.6,31.3,68.4,31.7z"/>
		<path opacity="0.369" fill="#FFFFFF" enable-background="new    " d="M68.4,31.7l1,4c0.9-1,1.8-2.1,2.8-3.1l-1.1-4.8
			c-0.7,0.9-1.3,1.8-2,2.8C68.8,30.9,68.6,31.3,68.4,31.7z"/>
		<path opacity="0.369" fill="#FFFFFF" enable-background="new    " d="M80.6,24.9l-0.4-1.4h-2.5c-0.2,0.1-0.3,0.2-0.5,0.3l-1.5,5.5
			c0.1-0.1,0.2-0.2,0.3-0.3C77.5,27.6,79,26.2,80.6,24.9z"/>
		<path opacity="0.369" fill="#FFFFFF" enable-background="new    " d="M80.6,24.9l-0.4-1.4h-2.5c-0.2,0.1-0.3,0.2-0.5,0.3l-1.5,5.5
			c0.1-0.1,0.2-0.2,0.3-0.3C77.5,27.6,79,26.2,80.6,24.9z"/>
		<path opacity="0.369" fill="#FFFFFF" enable-background="new    " d="M80.6,24.9l-0.4-1.4h-2.5c-0.2,0.1-0.3,0.2-0.5,0.3l-1.5,5.5
			c0.1-0.1,0.2-0.2,0.3-0.3C77.5,27.6,79,26.2,80.6,24.9z"/>
		<path opacity="0.369" fill="#FFFFFF" enable-background="new    " d="M80.6,24.9l-0.4-1.4h-2.5c-0.2,0.1-0.3,0.2-0.5,0.3l-1.5,5.5
			c0.1-0.1,0.2-0.2,0.3-0.3C77.5,27.6,79,26.2,80.6,24.9z"/>
		<path opacity="0.369" fill="#FFFFFF" enable-background="new    " d="M68.4,31.7c0.2-0.4,0.5-0.8,0.7-1.1c0.7-0.9,1.3-1.8,2-2.8
			L71,27.5c-1.1,0.7-2.1,1.4-3.1,2.2L68.4,31.7z"/>
		<path opacity="0.369" fill="#FFFFFF" enable-background="new    " d="M68.4,31.7c0.2-0.4,0.5-0.8,0.7-1.1c0.7-0.9,1.3-1.8,2-2.8
			L71,27.5c-1.1,0.7-2.1,1.4-3.1,2.2L68.4,31.7z"/>
		<path opacity="0.369" fill="#FFFFFF" enable-background="new    " d="M68.4,31.7c0.2-0.4,0.5-0.8,0.7-1.1c0.7-0.9,1.3-1.8,2-2.8
			L71,27.5c-1.1,0.7-2.1,1.4-3.1,2.2L68.4,31.7z"/>
		<path opacity="0.369" fill="#FFFFFF" enable-background="new    " d="M68.4,31.7c0.2-0.4,0.5-0.8,0.7-1.1c0.7-0.9,1.3-1.8,2-2.8
			L71,27.5c-1.1,0.7-2.1,1.4-3.1,2.2L68.4,31.7z"/>
		<path opacity="0.369" fill="#FFFFFF" enable-background="new    " d="M68.4,31.7c0.2-0.4,0.5-0.8,0.7-1.1c0.7-0.9,1.3-1.8,2-2.8
			L71,27.5c-1.1,0.7-2.1,1.4-3.1,2.2L68.4,31.7z"/>
		<path opacity="0.369" fill="#FFFFFF" enable-background="new    " d="M68.4,31.7c0.2-0.4,0.5-0.8,0.7-1.1c0.7-0.9,1.3-1.8,2-2.8
			L71,27.5c-1.1,0.7-2.1,1.4-3.1,2.2L68.4,31.7z"/>
		<path opacity="0.369" fill="#FFFFFF" enable-background="new    " d="M79.1,31c0,0.2,0.1,0.4,0.2,0.6L82,42c0.5-0.3,1-0.6,1.5-0.8
			c1.1-0.5,2.2-1.1,3.3-1.6l3.2-12.6c0.1-0.5,0.4-0.6,0.9-0.6h0.5v-2.5c-1.7,0.8-3.3,1.6-4.9,2.5l-2.3,9.9c-0.2,1.1-0.3,2-0.3,2
			h-0.1c0,0-0.1-0.9-0.4-2l-1.8-7c-0.4,0.2-0.7,0.4-1.1,0.7C80.1,30.2,79.6,30.6,79.1,31z"/>
		<path opacity="0.369" fill="#FFFFFF" enable-background="new    " d="M79.1,31c0,0.2,0.1,0.4,0.2,0.6L82,42c0.5-0.3,1-0.6,1.5-0.8
			c1.1-0.5,2.2-1.1,3.3-1.6l3.2-12.6c0.1-0.5,0.4-0.6,0.9-0.6h0.5v-2.5c-1.7,0.8-3.3,1.6-4.9,2.5l-2.3,9.9c-0.2,1.1-0.3,2-0.3,2
			h-0.1c0,0-0.1-0.9-0.4-2l-1.8-7c-0.4,0.2-0.7,0.4-1.1,0.7C80.1,30.2,79.6,30.6,79.1,31z"/>
		<path opacity="0.369" fill="#FFFFFF" enable-background="new    " d="M79.1,31c0,0.2,0.1,0.4,0.2,0.6L82,42c0.5-0.3,1-0.6,1.5-0.8
			c1.1-0.5,2.2-1.1,3.3-1.6l3.2-12.6c0.1-0.5,0.4-0.6,0.9-0.6h0.5v-2.5c-1.7,0.8-3.3,1.6-4.9,2.5l-2.3,9.9c-0.2,1.1-0.3,2-0.3,2
			h-0.1c0,0-0.1-0.9-0.4-2l-1.8-7c-0.4,0.2-0.7,0.4-1.1,0.7C80.1,30.2,79.6,30.6,79.1,31z"/>
		<path opacity="0.369" fill="#FFFFFF" enable-background="new    " d="M79.1,31c0,0.2,0.1,0.4,0.2,0.6L82,42c0.5-0.3,1-0.6,1.5-0.8
			c1.1-0.5,2.2-1.1,3.3-1.6l3.2-12.6c0.1-0.5,0.4-0.6,0.9-0.6h0.5v-2.5c-1.7,0.8-3.3,1.6-4.9,2.5l-2.3,9.9c-0.2,1.1-0.3,2-0.3,2
			h-0.1c0,0-0.1-0.9-0.4-2l-1.8-7c-0.4,0.2-0.7,0.4-1.1,0.7C80.1,30.2,79.6,30.6,79.1,31z"/>
		<path opacity="0.369" fill="#FFFFFF" enable-background="new    " d="M70.1,38.4l1,3.9h4.1l3-10.7c-0.5,0.3-0.9,0.6-1.4,1
			c-0.9,0.7-1.7,1.4-2.6,2.1l-0.4,1.5c-0.3,1.1-0.4,2-0.4,2h-0.1c0,0-0.1-0.9-0.3-2l-0.1-0.4C72,36.6,71.1,37.5,70.1,38.4
			C70.2,38.4,70.1,38.4,70.1,38.4z"/>
		<path opacity="0.369" fill="#FFFFFF" enable-background="new    " d="M70.1,38.4l1,3.9h4.1l3-10.7c-0.5,0.3-0.9,0.6-1.4,1
			c-0.9,0.7-1.7,1.4-2.6,2.1l-0.4,1.5c-0.3,1.1-0.4,2-0.4,2h-0.1c0,0-0.1-0.9-0.3-2l-0.1-0.4C72,36.6,71.1,37.5,70.1,38.4
			C70.2,38.4,70.1,38.4,70.1,38.4z"/>
		<path opacity="0.369" fill="#FFFFFF" enable-background="new    " d="M70.1,38.4l1,3.9h4.1l3-10.7c-0.5,0.3-0.9,0.6-1.4,1
			c-0.9,0.7-1.7,1.4-2.6,2.1l-0.4,1.5c-0.3,1.1-0.4,2-0.4,2h-0.1c0,0-0.1-0.9-0.3-2l-0.1-0.4C72,36.6,71.1,37.5,70.1,38.4
			C70.2,38.4,70.1,38.4,70.1,38.4z"/>
		<path opacity="0.369" fill="#FFFFFF" enable-background="new    " d="M70.1,38.4l1,3.9h4.1l3-10.7c-0.5,0.3-0.9,0.6-1.4,1
			c-0.9,0.7-1.7,1.4-2.6,2.1l-0.4,1.5c-0.3,1.1-0.4,2-0.4,2h-0.1c0,0-0.1-0.9-0.3-2l-0.1-0.4C72,36.6,71.1,37.5,70.1,38.4
			C70.2,38.4,70.1,38.4,70.1,38.4z"/>
		<path opacity="0.369" fill="#FFFFFF" enable-background="new    " d="M91.4,23.4h-2.3c-1.3,0-2.1,0.3-2.3,1.5l-0.3,1.4
			c1.6-0.9,3.3-1.7,4.9-2.5L91.4,23.4L91.4,23.4z"/>
		<path opacity="0.369" fill="#FFFFFF" enable-background="new    " d="M91.4,23.4h-2.3c-1.3,0-2.1,0.3-2.3,1.5l-0.3,1.4
			c1.6-0.9,3.3-1.7,4.9-2.5L91.4,23.4L91.4,23.4z"/>
		<path opacity="0.369" fill="#FFFFFF" enable-background="new    " d="M91.4,23.4h-2.3c-1.3,0-2.1,0.3-2.3,1.5l-0.3,1.4
			c1.6-0.9,3.3-1.7,4.9-2.5L91.4,23.4L91.4,23.4z"/>
		<path opacity="0.369" fill="#FFFFFF" enable-background="new    " d="M91.4,23.4h-2.3c-1.3,0-2.1,0.3-2.3,1.5l-0.3,1.4
			c1.6-0.9,3.3-1.7,4.9-2.5L91.4,23.4L91.4,23.4z"/>
		<path opacity="0.369" fill="#FFFFFF" enable-background="new    " d="M91.4,23.4h-2.3c-1.3,0-2.1,0.3-2.3,1.5l-0.3,1.4
			c1.6-0.9,3.3-1.7,4.9-2.5L91.4,23.4L91.4,23.4z"/>
		<path opacity="0.369" fill="#FFFFFF" enable-background="new    " d="M91.4,23.4h-2.3c-1.3,0-2.1,0.3-2.3,1.5l-0.3,1.4
			c1.6-0.9,3.3-1.7,4.9-2.5L91.4,23.4L91.4,23.4z"/>
		<path opacity="0.369" fill="#FFFFFF" enable-background="new    " d="M70.1,38.4C70.1,38.4,70.2,38.4,70.1,38.4
			c1-0.9,1.9-1.8,2.8-2.6l-0.7-3.2c-1,1-1.9,2-2.8,3.1L70.1,38.4z"/>
		<path opacity="0.369" fill="#FFFFFF" enable-background="new    " d="M70.1,38.4C70.1,38.4,70.2,38.4,70.1,38.4
			c1-0.9,1.9-1.8,2.8-2.6l-0.7-3.2c-1,1-1.9,2-2.8,3.1L70.1,38.4z"/>
		<path opacity="0.369" fill="#FFFFFF" enable-background="new    " d="M70.1,38.4C70.1,38.4,70.2,38.4,70.1,38.4
			c1-0.9,1.9-1.8,2.8-2.6l-0.7-3.2c-1,1-1.9,2-2.8,3.1L70.1,38.4z"/>
		<path opacity="0.369" fill="#FFFFFF" enable-background="new    " d="M70.1,38.4C70.1,38.4,70.2,38.4,70.1,38.4
			c1-0.9,1.9-1.8,2.8-2.6l-0.7-3.2c-1,1-1.9,2-2.8,3.1L70.1,38.4z"/>
		<path opacity="0.369" fill="#FFFFFF" enable-background="new    " d="M70.1,38.4C70.1,38.4,70.2,38.4,70.1,38.4
			c1-0.9,1.9-1.8,2.8-2.6l-0.7-3.2c-1,1-1.9,2-2.8,3.1L70.1,38.4z"/>
		<path opacity="0.369" fill="#FFFFFF" enable-background="new    " d="M70.1,38.4C70.1,38.4,70.2,38.4,70.1,38.4
			c1-0.9,1.9-1.8,2.8-2.6l-0.7-3.2c-1,1-1.9,2-2.8,3.1L70.1,38.4z"/>
		<path opacity="0.369" fill="#FFFFFF" enable-background="new    " d="M78.2,31.6L78.2,31.6c0.4-1.3,0.5-2.4,0.5-2.4h0.1
			c0,0,0.1,0.8,0.3,1.7c0.5-0.4,1-0.7,1.5-1.1c0.4-0.2,0.7-0.4,1.1-0.7l-1.1-4.3c-1.5,1.3-3.1,2.7-4.6,4.1c-0.1,0.1-0.2,0.2-0.3,0.3
			l-1.5,5.5c0.9-0.7,1.7-1.4,2.6-2.1C77.2,32.3,77.7,31.9,78.2,31.6z"/>
		<path opacity="0.369" fill="#FFFFFF" enable-background="new    " d="M78.2,31.6L78.2,31.6c0.4-1.3,0.5-2.4,0.5-2.4h0.1
			c0,0,0.1,0.8,0.3,1.7c0.5-0.4,1-0.7,1.5-1.1c0.4-0.2,0.7-0.4,1.1-0.7l-1.1-4.3c-1.5,1.3-3.1,2.7-4.6,4.1c-0.1,0.1-0.2,0.2-0.3,0.3
			l-1.5,5.5c0.9-0.7,1.7-1.4,2.6-2.1C77.2,32.3,77.7,31.9,78.2,31.6z"/>
		<path opacity="0.369" fill="#FFFFFF" enable-background="new    " d="M78.2,31.6L78.2,31.6c0.4-1.3,0.5-2.4,0.5-2.4h0.1
			c0,0,0.1,0.8,0.3,1.7c0.5-0.4,1-0.7,1.5-1.1c0.4-0.2,0.7-0.4,1.1-0.7l-1.1-4.3c-1.5,1.3-3.1,2.7-4.6,4.1c-0.1,0.1-0.2,0.2-0.3,0.3
			l-1.5,5.5c0.9-0.7,1.7-1.4,2.6-2.1C77.2,32.3,77.7,31.9,78.2,31.6z"/>
		<path opacity="0.369" fill="#FFFFFF" enable-background="new    " d="M78.2,31.6L78.2,31.6c0.4-1.3,0.5-2.4,0.5-2.4h0.1
			c0,0,0.1,0.8,0.3,1.7c0.5-0.4,1-0.7,1.5-1.1c0.4-0.2,0.7-0.4,1.1-0.7l-1.1-4.3c-1.5,1.3-3.1,2.7-4.6,4.1c-0.1,0.1-0.2,0.2-0.3,0.3
			l-1.5,5.5c0.9-0.7,1.7-1.4,2.6-2.1C77.2,32.3,77.7,31.9,78.2,31.6z"/>
		<path opacity="0.369" fill="#FFFFFF" enable-background="new    " d="M78.2,31.6L78.2,31.6c0.4-1.3,0.5-2.4,0.5-2.4h0.1
			c0,0,0.1,0.8,0.3,1.7c0.5-0.4,1-0.7,1.5-1.1c0.4-0.2,0.7-0.4,1.1-0.7l-1.1-4.3c-1.5,1.3-3.1,2.7-4.6,4.1c-0.1,0.1-0.2,0.2-0.3,0.3
			l-1.5,5.5c0.9-0.7,1.7-1.4,2.6-2.1C77.2,32.3,77.7,31.9,78.2,31.6z"/>
		<path opacity="0.369" fill="#FFFFFF" enable-background="new    " d="M78.2,31.6L78.2,31.6c0.4-1.3,0.5-2.4,0.5-2.4h0.1
			c0,0,0.1,0.8,0.3,1.7c0.5-0.4,1-0.7,1.5-1.1c0.4-0.2,0.7-0.4,1.1-0.7l-1.1-4.3c-1.5,1.3-3.1,2.7-4.6,4.1c-0.1,0.1-0.2,0.2-0.3,0.3
			l-1.5,5.5c0.9-0.7,1.7-1.4,2.6-2.1C77.2,32.3,77.7,31.9,78.2,31.6z"/>
	</g>
</g>
</svg>
