<?xml version="1.0" encoding="utf-8"?>
<!-- Generator: Adobe Illustrator 16.0.0, SVG Export Plug-In . SVG Version: 6.00 Build 0)  -->
<!DOCTYPE svg PUBLIC "-//W3C//DTD SVG 1.1//EN" "http://www.w3.org/Graphics/SVG/1.1/DTD/svg11.dtd">
<svg version="1.1" id="Layer_1" xmlns="http://www.w3.org/2000/svg" xmlns:xlink="http://www.w3.org/1999/xlink" x="0px" y="0px"
	 width="579.072px" height="389.404px" viewBox="0 0 579.072 389.404" enable-background="new 0 0 579.072 389.404"
	 xml:space="preserve">
<g>
	<path opacity="0.369" fill="#FFFFFF" enable-background="new    " d="M374.275,201.23c7.529-6.756,15.13-13.431,22.812-20.011
		c-10.951-5.043-19.233-10.307-19.233-19.164c0-9.728,9.511-16.43,22.482-16.43c10.16,0,20.321,4.756,20.321,11.89v4.028
		c7.979-6.484,16.053-12.855,24.221-19.115c-4.495-12.836-20.019-19.513-34.06-21.7c-15.064,12.906-29.889,26.112-44.48,39.608
		c-5.049,5.081-10.099,10.16-15.148,15.242C354.945,187.235,363.933,195.085,374.275,201.23z"/>
	<path opacity="0.369" fill="#FFFFFF" enable-background="new    " d="M374.275,201.23c7.529-6.756,15.13-13.431,22.812-20.011
		c-10.951-5.043-19.233-10.307-19.233-19.164c0-9.728,9.511-16.43,22.482-16.43c10.16,0,20.321,4.756,20.321,11.89v4.028
		c7.979-6.484,16.053-12.855,24.221-19.115c-4.495-12.836-20.019-19.513-34.06-21.7c-15.064,12.906-29.889,26.112-44.48,39.608
		c-5.049,5.081-10.099,10.16-15.148,15.242C354.945,187.235,363.933,195.085,374.275,201.23z"/>
	<path opacity="0.369" fill="#FFFFFF" enable-background="new    " d="M421.524,234.909c0,4.367-1.404,7.973-3.754,10.791
		c10.228-7.997,20.512-15.935,30.851-23.812c-6.392-24.09-32.847-32.063-51.533-40.669c-7.683,6.58-15.283,13.255-22.812,20.011
		C395.146,213.63,421.524,219.098,421.524,234.909z"/>
	<path opacity="0.369" fill="#FFFFFF" enable-background="new    " d="M421.524,234.909c0,4.367-1.404,7.973-3.754,10.791
		c10.228-7.997,20.512-15.935,30.851-23.812c-6.392-24.09-32.847-32.063-51.533-40.669c-7.683,6.58-15.283,13.255-22.812,20.011
		C395.146,213.63,421.524,219.098,421.524,234.909z"/>
	<path opacity="0.369" fill="#FFFFFF" enable-background="new    " d="M421.524,234.909c0,4.367-1.404,7.973-3.754,10.791
		c10.228-7.997,20.512-15.935,30.851-23.812c-6.392-24.09-32.847-32.063-51.533-40.669c-7.683,6.58-15.283,13.255-22.812,20.011
		C395.146,213.63,421.524,219.098,421.524,234.909z"/>
	<path opacity="0.369" fill="#FFFFFF" enable-background="new    " d="M421.524,234.909c0,4.367-1.404,7.973-3.754,10.791
		c10.228-7.997,20.512-15.935,30.851-23.812c-6.392-24.09-32.847-32.063-51.533-40.669c-7.683,6.58-15.283,13.255-22.812,20.011
		C395.146,213.63,421.524,219.098,421.524,234.909z"/>
	<path opacity="0.369" fill="#FFFFFF" enable-background="new    " d="M420.658,164.433h25.51v-14.268
		c0-2.796-0.46-5.369-1.289-7.736c-8.168,6.259-16.242,12.631-24.221,19.115V164.433z"/>
	<path opacity="0.369" fill="#FFFFFF" enable-background="new    " d="M420.658,164.433h25.51v-14.268
		c0-2.796-0.46-5.369-1.289-7.736c-8.168,6.259-16.242,12.631-24.221,19.115V164.433z"/>
	<path opacity="0.369" fill="#FFFFFF" enable-background="new    " d="M420.658,164.433h25.51v-14.268
		c0-2.796-0.46-5.369-1.289-7.736c-8.168,6.259-16.242,12.631-24.221,19.115V164.433z"/>
	<path opacity="0.369" fill="#FFFFFF" enable-background="new    " d="M420.658,164.433h25.51v-14.268
		c0-2.796-0.46-5.369-1.289-7.736c-8.168,6.259-16.242,12.631-24.221,19.115V164.433z"/>
	<path opacity="0.369" fill="#FFFFFF" enable-background="new    " d="M399.472,253.067c-21.402,0-37.184-18.158-37.184-18.158
		L346.29,254.8c0,0,11.764,14.852,33.454,21.078c10.674-8.595,21.409-17.132,32.203-25.611
		C408.337,252.118,404.004,253.067,399.472,253.067z"/>
	<path opacity="0.369" fill="#FFFFFF" enable-background="new    " d="M399.472,253.067c-21.402,0-37.184-18.158-37.184-18.158
		L346.29,254.8c0,0,11.764,14.852,33.454,21.078c10.674-8.595,21.409-17.132,32.203-25.611
		C408.337,252.118,404.004,253.067,399.472,253.067z"/>
	<path opacity="0.369" fill="#FFFFFF" enable-background="new    " d="M399.472,253.067c-21.402,0-37.184-18.158-37.184-18.158
		L346.29,254.8c0,0,11.764,14.852,33.454,21.078c10.674-8.595,21.409-17.132,32.203-25.611
		C408.337,252.118,404.004,253.067,399.472,253.067z"/>
	<path opacity="0.369" fill="#FFFFFF" enable-background="new    " d="M399.472,253.067c-21.402,0-37.184-18.158-37.184-18.158
		L346.29,254.8c0,0,11.764,14.852,33.454,21.078c10.674-8.595,21.409-17.132,32.203-25.611
		C408.337,252.118,404.004,253.067,399.472,253.067z"/>
	<path opacity="0.369" fill="#FFFFFF" enable-background="new    " d="M410.819,120.729c-3.588-0.559-7.082-0.831-10.267-0.831
		c-29.616,0-51.235,18.376-51.235,43.237c0,4.586,0.671,8.708,1.873,12.443c5.05-5.082,10.1-10.161,15.148-15.242
		C380.931,146.84,395.755,133.635,410.819,120.729z"/>
	<path opacity="0.369" fill="#FFFFFF" enable-background="new    " d="M410.819,120.729c-3.588-0.559-7.082-0.831-10.267-0.831
		c-29.616,0-51.235,18.376-51.235,43.237c0,4.586,0.671,8.708,1.873,12.443c5.05-5.082,10.1-10.161,15.148-15.242
		C380.931,146.84,395.755,133.635,410.819,120.729z"/>
	<path opacity="0.369" fill="#FFFFFF" enable-background="new    " d="M410.819,120.729c-3.588-0.559-7.082-0.831-10.267-0.831
		c-29.616,0-51.235,18.376-51.235,43.237c0,4.586,0.671,8.708,1.873,12.443c5.05-5.082,10.1-10.161,15.148-15.242
		C380.931,146.84,395.755,133.635,410.819,120.729z"/>
	<path opacity="0.369" fill="#FFFFFF" enable-background="new    " d="M410.819,120.729c-3.588-0.559-7.082-0.831-10.267-0.831
		c-29.616,0-51.235,18.376-51.235,43.237c0,4.586,0.671,8.708,1.873,12.443c5.05-5.082,10.1-10.161,15.148-15.242
		C380.931,146.84,395.755,133.635,410.819,120.729z"/>
	<path opacity="0.369" fill="#FFFFFF" enable-background="new    " d="M411.947,250.267c-10.794,8.479-21.529,17.017-32.203,25.611
		c5.749,1.65,12.185,2.702,19.295,2.702c32.212,0,51.021-20.754,51.021-45.183c0-4.21-0.515-8.024-1.438-11.509
		c-10.339,7.877-20.623,15.814-30.851,23.812C416.206,247.576,414.221,249.101,411.947,250.267z"/>
	<path opacity="0.369" fill="#FFFFFF" enable-background="new    " d="M411.947,250.267c-10.794,8.479-21.529,17.017-32.203,25.611
		c5.749,1.65,12.185,2.702,19.295,2.702c32.212,0,51.021-20.754,51.021-45.183c0-4.21-0.515-8.024-1.438-11.509
		c-10.339,7.877-20.623,15.814-30.851,23.812C416.206,247.576,414.221,249.101,411.947,250.267z"/>
	<path opacity="0.369" fill="#FFFFFF" enable-background="new    " d="M411.947,250.267c-10.794,8.479-21.529,17.017-32.203,25.611
		c5.749,1.65,12.185,2.702,19.295,2.702c32.212,0,51.021-20.754,51.021-45.183c0-4.21-0.515-8.024-1.438-11.509
		c-10.339,7.877-20.623,15.814-30.851,23.812C416.206,247.576,414.221,249.101,411.947,250.267z"/>
	<path opacity="0.369" fill="#FFFFFF" enable-background="new    " d="M411.947,250.267c-10.794,8.479-21.529,17.017-32.203,25.611
		c5.749,1.65,12.185,2.702,19.295,2.702c32.212,0,51.021-20.754,51.021-45.183c0-4.21-0.515-8.024-1.438-11.509
		c-10.339,7.877-20.623,15.814-30.851,23.812C416.206,247.576,414.221,249.101,411.947,250.267z"/>
	<path opacity="0.369" fill="#FFFFFF" enable-background="new    " d="M411.947,250.267c-10.794,8.479-21.529,17.017-32.203,25.611
		c5.749,1.65,12.185,2.702,19.295,2.702c32.212,0,51.021-20.754,51.021-45.183c0-4.21-0.515-8.024-1.438-11.509
		c-10.339,7.877-20.623,15.814-30.851,23.812C416.206,247.576,414.221,249.101,411.947,250.267z"/>
	<path opacity="0.369" fill="#FFFFFF" enable-background="new    " d="M411.947,250.267c-10.794,8.479-21.529,17.017-32.203,25.611
		c5.749,1.65,12.185,2.702,19.295,2.702c32.212,0,51.021-20.754,51.021-45.183c0-4.21-0.515-8.024-1.438-11.509
		c-10.339,7.877-20.623,15.814-30.851,23.812C416.206,247.576,414.221,249.101,411.947,250.267z"/>
</g>
<g>
	<path opacity="0.369" fill="#FFFFFF" enable-background="new    " d="M83.727,143.083L213.071,13.738L198.929-0.404L6.596,191.929
		L6.667,192l-5.071,5.071l11.9,11.9C36.098,186.21,59.506,164.162,83.727,143.083z"/>
	<path opacity="0.369" fill="#FFFFFF" enable-background="new    " d="M83.727,143.083L213.071,13.738L198.929-0.404L6.596,191.929
		L6.667,192l-5.071,5.071l11.9,11.9C36.098,186.21,59.506,164.162,83.727,143.083z"/>
	<path opacity="0.369" fill="#FFFFFF" enable-background="new    " d="M83.727,143.083L213.071,13.738L198.929-0.404L6.596,191.929
		L6.667,192l-5.071,5.071l11.9,11.9C36.098,186.21,59.506,164.162,83.727,143.083z"/>
	<path opacity="0.369" fill="#FFFFFF" enable-background="new    " d="M83.727,143.083L213.071,13.738L198.929-0.404L6.596,191.929
		L6.667,192l-5.071,5.071l11.9,11.9C36.098,186.21,59.506,164.162,83.727,143.083z"/>
	<path opacity="0.369" fill="#FFFFFF" enable-background="new    " d="M150.212,345.688l43.717,43.717l14.142-14.143l-43.172-43.173
		c-1.675,1.422-3.35,2.844-5.024,4.266C156.654,339.466,153.433,342.576,150.212,345.688z"/>
	<path opacity="0.369" fill="#FFFFFF" enable-background="new    " d="M150.212,345.688l43.717,43.717l14.142-14.143l-43.172-43.173
		c-1.675,1.422-3.35,2.844-5.024,4.266C156.654,339.466,153.433,342.576,150.212,345.688z"/>
	<path opacity="0.369" fill="#FFFFFF" enable-background="new    " d="M84.571,271.966c2.81-3.919,5.628-7.836,8.456-11.749
		L29.81,197l53.917-53.917c-24.221,21.079-47.629,43.127-70.23,65.889l67.741,67.741C82.349,275.131,83.444,273.538,84.571,271.966z
		"/>
	<path opacity="0.369" fill="#FFFFFF" enable-background="new    " d="M84.571,271.966c2.81-3.919,5.628-7.836,8.456-11.749
		L29.81,197l53.917-53.917c-24.221,21.079-47.629,43.127-70.23,65.889l67.741,67.741C82.349,275.131,83.444,273.538,84.571,271.966z
		"/>
	<path opacity="0.369" fill="#FFFFFF" enable-background="new    " d="M84.571,271.966c2.81-3.919,5.628-7.836,8.456-11.749
		L29.81,197l53.917-53.917c-24.221,21.079-47.629,43.127-70.23,65.889l67.741,67.741C82.349,275.131,83.444,273.538,84.571,271.966z
		"/>
	<path opacity="0.369" fill="#FFFFFF" enable-background="new    " d="M84.571,271.966c2.81-3.919,5.628-7.836,8.456-11.749
		L29.81,197l53.917-53.917c-24.221,21.079-47.629,43.127-70.23,65.889l67.741,67.741C82.349,275.131,83.444,273.538,84.571,271.966z
		"/>
	<path opacity="0.369" fill="#FFFFFF" enable-background="new    " d="M84.571,271.966c2.81-3.919,5.628-7.836,8.456-11.749
		L29.81,197l53.917-53.917c-24.221,21.079-47.629,43.127-70.23,65.889l67.741,67.741C82.349,275.131,83.444,273.538,84.571,271.966z
		"/>
	<path opacity="0.369" fill="#FFFFFF" enable-background="new    " d="M84.571,271.966c2.81-3.919,5.628-7.836,8.456-11.749
		L29.81,197l53.917-53.917c-24.221,21.079-47.629,43.127-70.23,65.889l67.741,67.741C82.349,275.131,83.444,273.538,84.571,271.966z
		"/>
	<path opacity="0.369" fill="#FFFFFF" enable-background="new    " d="M103.191,290.701c0.086,2.733,0.167,5.466,0.233,8.198
		l46.788,46.788c3.221-3.111,6.441-6.222,9.662-9.333c1.675-1.422,3.35-2.844,5.024-4.266l-56.068-56.068
		c-1.541,2.325-3.075,4.657-4.601,6.997C103.863,285.574,103.518,288.136,103.191,290.701z"/>
	<path opacity="0.369" fill="#FFFFFF" enable-background="new    " d="M103.191,290.701c0.086,2.733,0.167,5.466,0.233,8.198
		l46.788,46.788c3.221-3.111,6.441-6.222,9.662-9.333c1.675-1.422,3.35-2.844,5.024-4.266l-56.068-56.068
		c-1.541,2.325-3.075,4.657-4.601,6.997C103.863,285.574,103.518,288.136,103.191,290.701z"/>
	<path opacity="0.369" fill="#FFFFFF" enable-background="new    " d="M103.191,290.701c0.086,2.733,0.167,5.466,0.233,8.198
		l46.788,46.788c3.221-3.111,6.441-6.222,9.662-9.333c1.675-1.422,3.35-2.844,5.024-4.266l-56.068-56.068
		c-1.541,2.325-3.075,4.657-4.601,6.997C103.863,285.574,103.518,288.136,103.191,290.701z"/>
	<path opacity="0.369" fill="#FFFFFF" enable-background="new    " d="M103.191,290.701c0.086,2.733,0.167,5.466,0.233,8.198
		l46.788,46.788c3.221-3.111,6.441-6.222,9.662-9.333c1.675-1.422,3.35-2.844,5.024-4.266l-56.068-56.068
		c-1.541,2.325-3.075,4.657-4.601,6.997C103.863,285.574,103.518,288.136,103.191,290.701z"/>
	<path opacity="0.369" fill="#FFFFFF" enable-background="new    " d="M104.229,283.018c1.526-2.34,3.06-4.672,4.601-6.997
		l-3.042-3.042C105.237,276.317,104.711,279.662,104.229,283.018z"/>
	<path opacity="0.369" fill="#FFFFFF" enable-background="new    " d="M104.229,283.018c1.526-2.34,3.06-4.672,4.601-6.997
		l-3.042-3.042C105.237,276.317,104.711,279.662,104.229,283.018z"/>
	<path opacity="0.369" fill="#FFFFFF" enable-background="new    " d="M104.229,283.018c1.526-2.34,3.06-4.672,4.601-6.997
		l-3.042-3.042C105.237,276.317,104.711,279.662,104.229,283.018z"/>
	<path opacity="0.369" fill="#FFFFFF" enable-background="new    " d="M104.229,283.018c1.526-2.34,3.06-4.672,4.601-6.997
		l-3.042-3.042C105.237,276.317,104.711,279.662,104.229,283.018z"/>
	<path opacity="0.369" fill="#FFFFFF" enable-background="new    " d="M104.229,283.018c1.526-2.34,3.06-4.672,4.601-6.997
		l-3.042-3.042C105.237,276.317,104.711,279.662,104.229,283.018z"/>
	<path opacity="0.369" fill="#FFFFFF" enable-background="new    " d="M104.229,283.018c1.526-2.34,3.06-4.672,4.601-6.997
		l-3.042-3.042C105.237,276.317,104.711,279.662,104.229,283.018z"/>
	<path opacity="0.369" fill="#FFFFFF" enable-background="new    " d="M104.229,283.018c-2.196,3.37-4.373,6.757-6.526,10.161
		l5.722,5.721c-0.067-2.732-0.147-5.465-0.233-8.198C103.518,288.136,103.863,285.574,104.229,283.018z"/>
	<path opacity="0.369" fill="#FFFFFF" enable-background="new    " d="M104.229,283.018c-2.196,3.37-4.373,6.757-6.526,10.161
		l5.722,5.721c-0.067-2.732-0.147-5.465-0.233-8.198C103.518,288.136,103.863,285.574,104.229,283.018z"/>
	<path opacity="0.369" fill="#FFFFFF" enable-background="new    " d="M104.229,283.018c-2.196,3.37-4.373,6.757-6.526,10.161
		l5.722,5.721c-0.067-2.732-0.147-5.465-0.233-8.198C103.518,288.136,103.863,285.574,104.229,283.018z"/>
	<path opacity="0.369" fill="#FFFFFF" enable-background="new    " d="M104.229,283.018c-2.196,3.37-4.373,6.757-6.526,10.161
		l5.722,5.721c-0.067-2.732-0.147-5.465-0.233-8.198C103.518,288.136,103.863,285.574,104.229,283.018z"/>
	<path opacity="0.369" fill="#FFFFFF" enable-background="new    " d="M104.229,283.018c-2.196,3.37-4.373,6.757-6.526,10.161
		l5.722,5.721c-0.067-2.732-0.147-5.465-0.233-8.198C103.518,288.136,103.863,285.574,104.229,283.018z"/>
	<path opacity="0.369" fill="#FFFFFF" enable-background="new    " d="M104.229,283.018c-2.196,3.37-4.373,6.757-6.526,10.161
		l5.722,5.721c-0.067-2.732-0.147-5.465-0.233-8.198C103.518,288.136,103.863,285.574,104.229,283.018z"/>
	<path opacity="0.369" fill="#FFFFFF" enable-background="new    " d="M81.237,276.713l16.466,16.466
		c2.153-3.404,4.33-6.791,6.526-10.161c0.481-3.355,1.008-6.7,1.559-10.039l-12.762-12.762c-2.827,3.913-5.646,7.83-8.456,11.749
		C83.444,273.538,82.349,275.131,81.237,276.713z"/>
	<path opacity="0.369" fill="#FFFFFF" enable-background="new    " d="M81.237,276.713l16.466,16.466
		c2.153-3.404,4.33-6.791,6.526-10.161c0.481-3.355,1.008-6.7,1.559-10.039l-12.762-12.762c-2.827,3.913-5.646,7.83-8.456,11.749
		C83.444,273.538,82.349,275.131,81.237,276.713z"/>
	<path opacity="0.369" fill="#FFFFFF" enable-background="new    " d="M81.237,276.713l16.466,16.466
		c2.153-3.404,4.33-6.791,6.526-10.161c0.481-3.355,1.008-6.7,1.559-10.039l-12.762-12.762c-2.827,3.913-5.646,7.83-8.456,11.749
		C83.444,273.538,82.349,275.131,81.237,276.713z"/>
	<path opacity="0.369" fill="#FFFFFF" enable-background="new    " d="M81.237,276.713l16.466,16.466
		c2.153-3.404,4.33-6.791,6.526-10.161c0.481-3.355,1.008-6.7,1.559-10.039l-12.762-12.762c-2.827,3.913-5.646,7.83-8.456,11.749
		C83.444,273.538,82.349,275.131,81.237,276.713z"/>
	<path opacity="0.369" fill="#FFFFFF" enable-background="new    " d="M81.237,276.713l16.466,16.466
		c2.153-3.404,4.33-6.791,6.526-10.161c0.481-3.355,1.008-6.7,1.559-10.039l-12.762-12.762c-2.827,3.913-5.646,7.83-8.456,11.749
		C83.444,273.538,82.349,275.131,81.237,276.713z"/>
	<path opacity="0.369" fill="#FFFFFF" enable-background="new    " d="M81.237,276.713l16.466,16.466
		c2.153-3.404,4.33-6.791,6.526-10.161c0.481-3.355,1.008-6.7,1.559-10.039l-12.762-12.762c-2.827,3.913-5.646,7.83-8.456,11.749
		C83.444,273.538,82.349,275.131,81.237,276.713z"/>
	<path opacity="0.369" fill="#FFFFFF" enable-background="new    " d="M81.237,276.713l16.466,16.466
		c2.153-3.404,4.33-6.791,6.526-10.161c0.481-3.355,1.008-6.7,1.559-10.039l-12.762-12.762c-2.827,3.913-5.646,7.83-8.456,11.749
		C83.444,273.538,82.349,275.131,81.237,276.713z"/>
	<path opacity="0.369" fill="#FFFFFF" enable-background="new    " d="M81.237,276.713l16.466,16.466
		c2.153-3.404,4.33-6.791,6.526-10.161c0.481-3.355,1.008-6.7,1.559-10.039l-12.762-12.762c-2.827,3.913-5.646,7.83-8.456,11.749
		C83.444,273.538,82.349,275.131,81.237,276.713z"/>
</g>
<g>
	<path opacity="0.369" fill="#FFFFFF" enable-background="new    " d="M376.903,374.541l14.442,14.441l14.874-14.875
		c-5.648-3.979-11.297-7.959-16.944-11.938L376.903,374.541z"/>
	<path opacity="0.369" fill="#FFFFFF" enable-background="new    " d="M376.903,374.541l14.442,14.441l14.874-14.875
		c-5.648-3.979-11.297-7.959-16.944-11.938L376.903,374.541z"/>
	<path opacity="0.369" fill="#FFFFFF" enable-background="new    " d="M419.022,67.314c-1.587-0.711-3.174-1.423-4.76-2.134
		l136.001,136.001L389.275,362.169c5.647,3.979,11.296,7.96,16.944,11.938l172.853-172.853l-13.844-13.843l0.074-0.074
		l-84.698-84.697c-8.08-5.1-16.161-10.197-24.24-15.296C443.917,80.667,431.469,73.991,419.022,67.314z"/>
	<path opacity="0.369" fill="#FFFFFF" enable-background="new    " d="M419.022,67.314c-1.587-0.711-3.174-1.423-4.76-2.134
		l136.001,136.001L389.275,362.169c5.647,3.979,11.296,7.96,16.944,11.938l172.853-172.853l-13.844-13.843l0.074-0.074
		l-84.698-84.697c-8.08-5.1-16.161-10.197-24.24-15.296C443.917,80.667,431.469,73.991,419.022,67.314z"/>
	<path opacity="0.369" fill="#FFFFFF" enable-background="new    " d="M419.022,67.314c-1.587-0.711-3.174-1.423-4.76-2.134
		l136.001,136.001L389.275,362.169c5.647,3.979,11.296,7.96,16.944,11.938l172.853-172.853l-13.844-13.843l0.074-0.074
		l-84.698-84.697c-8.08-5.1-16.161-10.197-24.24-15.296C443.917,80.667,431.469,73.991,419.022,67.314z"/>
	<path opacity="0.369" fill="#FFFFFF" enable-background="new    " d="M419.022,67.314c-1.587-0.711-3.174-1.423-4.76-2.134
		l136.001,136.001L389.275,362.169c5.647,3.979,11.296,7.96,16.944,11.938l172.853-172.853l-13.844-13.843l0.074-0.074
		l-84.698-84.697c-8.08-5.1-16.161-10.197-24.24-15.296C443.917,80.667,431.469,73.991,419.022,67.314z"/>
	<path opacity="0.369" fill="#FFFFFF" enable-background="new    " d="M363.134,14.052l51.129,51.129
		c1.586,0.711,3.173,1.423,4.76,2.134c12.446,6.676,24.895,13.353,37.342,20.031c8.079,5.099,16.16,10.196,24.24,15.296
		L377.575-0.388L363.134,14.052z"/>
	<path opacity="0.369" fill="#FFFFFF" enable-background="new    " d="M363.134,14.052l51.129,51.129
		c1.586,0.711,3.173,1.423,4.76,2.134c12.446,6.676,24.895,13.353,37.342,20.031c8.079,5.099,16.16,10.196,24.24,15.296
		L377.575-0.388L363.134,14.052z"/>
	<path opacity="0.369" fill="#FFFFFF" enable-background="new    " d="M363.134,14.052l51.129,51.129
		c1.586,0.711,3.173,1.423,4.76,2.134c12.446,6.676,24.895,13.353,37.342,20.031c8.079,5.099,16.16,10.196,24.24,15.296
		L377.575-0.388L363.134,14.052z"/>
	<path opacity="0.369" fill="#FFFFFF" enable-background="new    " d="M363.134,14.052l51.129,51.129
		c1.586,0.711,3.173,1.423,4.76,2.134c12.446,6.676,24.895,13.353,37.342,20.031c8.079,5.099,16.16,10.196,24.24,15.296
		L377.575-0.388L363.134,14.052z"/>
	<path opacity="0.369" fill="#FFFFFF" enable-background="new    " d="M363.134,14.052l51.129,51.129
		c1.586,0.711,3.173,1.423,4.76,2.134c12.446,6.676,24.895,13.353,37.342,20.031c8.079,5.099,16.16,10.196,24.24,15.296
		L377.575-0.388L363.134,14.052z"/>
	<path opacity="0.369" fill="#FFFFFF" enable-background="new    " d="M363.134,14.052l51.129,51.129
		c1.586,0.711,3.173,1.423,4.76,2.134c12.446,6.676,24.895,13.353,37.342,20.031c8.079,5.099,16.16,10.196,24.24,15.296
		L377.575-0.388L363.134,14.052z"/>
</g>
<g>
	<path opacity="0.369" fill="#FFFFFF" enable-background="new    " d="M221.987,122.923l-0.656,2.436
		c1.406-0.813,2.811-1.627,4.22-2.436H221.987z"/>
	<path opacity="0.369" fill="#FFFFFF" enable-background="new    " d="M221.987,122.923l-0.656,2.436
		c1.406-0.813,2.811-1.627,4.22-2.436H221.987z"/>
	<path opacity="0.369" fill="#FFFFFF" enable-background="new    " d="M129.459,129.144c2.979-2.223,5.964-4.44,8.956-6.651h-8.956
		V129.144z"/>
	<path opacity="0.369" fill="#FFFFFF" enable-background="new    " d="M129.459,129.144c2.979-2.223,5.964-4.44,8.956-6.651h-8.956
		V129.144z"/>
	<path opacity="0.369" fill="#FFFFFF" enable-background="new    " d="M129.459,146.488h4.107c3.676,0,6.054,1.081,6.918,4.757
		l5.645,22.156c8.375-6.073,16.866-11.97,25.478-17.665l-4.748-20.705c-2.378-9.945-8.214-12.539-19.024-12.539h-9.42
		c-2.992,2.211-5.977,4.429-8.956,6.651V146.488z"/>
	<path opacity="0.369" fill="#FFFFFF" enable-background="new    " d="M129.459,146.488h4.107c3.676,0,6.054,1.081,6.918,4.757
		l5.645,22.156c8.375-6.073,16.866-11.97,25.478-17.665l-4.748-20.705c-2.378-9.945-8.214-12.539-19.024-12.539h-9.42
		c-2.992,2.211-5.977,4.429-8.956,6.651V146.488z"/>
	<path opacity="0.369" fill="#FFFFFF" enable-background="new    " d="M129.459,146.488h4.107c3.676,0,6.054,1.081,6.918,4.757
		l5.645,22.156c8.375-6.073,16.866-11.97,25.478-17.665l-4.748-20.705c-2.378-9.945-8.214-12.539-19.024-12.539h-9.42
		c-2.992,2.211-5.977,4.429-8.956,6.651V146.488z"/>
	<path opacity="0.369" fill="#FFFFFF" enable-background="new    " d="M129.459,146.488h4.107c3.676,0,6.054,1.081,6.918,4.757
		l5.645,22.156c8.375-6.073,16.866-11.97,25.478-17.665l-4.748-20.705c-2.378-9.945-8.214-12.539-19.024-12.539h-9.42
		c-2.992,2.211-5.977,4.429-8.956,6.651V146.488z"/>
	<path opacity="0.369" fill="#FFFFFF" enable-background="new    " d="M260.787,273.942l0.548,2.041h32.645l5.685-22.162
		c-9.007,4.449-18.013,8.896-27.019,13.344C268.692,269.424,264.739,271.684,260.787,273.942z"/>
	<path opacity="0.369" fill="#FFFFFF" enable-background="new    " d="M260.787,273.942l0.548,2.041h32.645l5.685-22.162
		c-9.007,4.449-18.013,8.896-27.019,13.344C268.692,269.424,264.739,271.684,260.787,273.942z"/>
	<path opacity="0.369" fill="#FFFFFF" enable-background="new    " d="M150.283,189.705l8.316,32.639
		c7.322-8.5,14.83-16.833,22.56-24.956l-8.985-39.185c-5.44,7.457-10.881,14.912-16.323,22.368
		C153.948,183.592,152.092,186.636,150.283,189.705z"/>
	<path opacity="0.369" fill="#FFFFFF" enable-background="new    " d="M150.283,189.705l8.316,32.639
		c7.322-8.5,14.83-16.833,22.56-24.956l-8.985-39.185c-5.44,7.457-10.881,14.912-16.323,22.368
		C153.948,183.592,152.092,186.636,150.283,189.705z"/>
	<path opacity="0.369" fill="#FFFFFF" enable-background="new    " d="M150.283,189.705l8.316,32.639
		c7.322-8.5,14.83-16.833,22.56-24.956l-8.985-39.185c-5.44,7.457-10.881,14.912-16.323,22.368
		C153.948,183.592,152.092,186.636,150.283,189.705z"/>
	<path opacity="0.369" fill="#FFFFFF" enable-background="new    " d="M150.283,189.705l8.316,32.639
		c7.322-8.5,14.83-16.833,22.56-24.956l-8.985-39.185c-5.44,7.457-10.881,14.912-16.323,22.368
		C153.948,183.592,152.092,186.636,150.283,189.705z"/>
	<path opacity="0.369" fill="#FFFFFF" enable-background="new    " d="M248.95,134.568l-2.966-11.645h-20.433
		c-1.409,0.809-2.814,1.623-4.22,2.436l-11.944,44.35c0.801-0.729,1.585-1.476,2.392-2.2
		C224.067,156.473,236.403,145.403,248.95,134.568z"/>
	<path opacity="0.369" fill="#FFFFFF" enable-background="new    " d="M248.95,134.568l-2.966-11.645h-20.433
		c-1.409,0.809-2.814,1.623-4.22,2.436l-11.944,44.35c0.801-0.729,1.585-1.476,2.392-2.2
		C224.067,156.473,236.403,145.403,248.95,134.568z"/>
	<path opacity="0.369" fill="#FFFFFF" enable-background="new    " d="M248.95,134.568l-2.966-11.645h-20.433
		c-1.409,0.809-2.814,1.623-4.22,2.436l-11.944,44.35c0.801-0.729,1.585-1.476,2.392-2.2
		C224.067,156.473,236.403,145.403,248.95,134.568z"/>
	<path opacity="0.369" fill="#FFFFFF" enable-background="new    " d="M248.95,134.568l-2.966-11.645h-20.433
		c-1.409,0.809-2.814,1.623-4.22,2.436l-11.944,44.35c0.801-0.729,1.585-1.476,2.392-2.2
		C224.067,156.473,236.403,145.403,248.95,134.568z"/>
	<path opacity="0.369" fill="#FFFFFF" enable-background="new    " d="M150.283,189.705c1.81-3.068,3.666-6.113,5.567-9.133
		c5.442-7.457,10.882-14.912,16.323-22.368l-0.566-2.467c-8.612,5.695-17.103,11.592-25.478,17.665L150.283,189.705z"/>
	<path opacity="0.369" fill="#FFFFFF" enable-background="new    " d="M150.283,189.705c1.81-3.068,3.666-6.113,5.567-9.133
		c5.442-7.457,10.882-14.912,16.323-22.368l-0.566-2.467c-8.612,5.695-17.103,11.592-25.478,17.665L150.283,189.705z"/>
	<path opacity="0.369" fill="#FFFFFF" enable-background="new    " d="M150.283,189.705c1.81-3.068,3.666-6.113,5.567-9.133
		c5.442-7.457,10.882-14.912,16.323-22.368l-0.566-2.467c-8.612,5.695-17.103,11.592-25.478,17.665L150.283,189.705z"/>
	<path opacity="0.369" fill="#FFFFFF" enable-background="new    " d="M150.283,189.705c1.81-3.068,3.666-6.113,5.567-9.133
		c5.442-7.457,10.882-14.912,16.323-22.368l-0.566-2.467c-8.612,5.695-17.103,11.592-25.478,17.665L150.283,189.705z"/>
	<path opacity="0.369" fill="#FFFFFF" enable-background="new    " d="M150.283,189.705c1.81-3.068,3.666-6.113,5.567-9.133
		c5.442-7.457,10.882-14.912,16.323-22.368l-0.566-2.467c-8.612,5.695-17.103,11.592-25.478,17.665L150.283,189.705z"/>
	<path opacity="0.369" fill="#FFFFFF" enable-background="new    " d="M150.283,189.705c1.81-3.068,3.666-6.113,5.567-9.133
		c5.442-7.457,10.882-14.912,16.323-22.368l-0.566-2.467c-8.612,5.695-17.103,11.592-25.478,17.665L150.283,189.705z"/>
	<path opacity="0.369" fill="#FFFFFF" enable-background="new    " d="M236.765,184.14c0.369,1.604,0.774,3.262,1.221,4.937
		l22.801,84.865c3.953-2.259,7.906-4.519,11.858-6.777c9.006-4.448,18.012-8.895,27.019-13.344l26.312-102.576
		c0.863-3.676,3.025-4.757,6.918-4.757H337v-20.314c-13.564,6.29-26.904,13.027-40.029,20.2l-18.559,80.104
		c-1.946,8.647-2.594,16.213-2.594,16.213h-0.433c0,0-0.648-7.35-3.026-16.213l-14.432-56.662c-2.867,1.782-5.731,3.565-8.6,5.347
		C245.139,178.155,240.952,181.148,236.765,184.14z"/>
	<path opacity="0.369" fill="#FFFFFF" enable-background="new    " d="M236.765,184.14c0.369,1.604,0.774,3.262,1.221,4.937
		l22.801,84.865c3.953-2.259,7.906-4.519,11.858-6.777c9.006-4.448,18.012-8.895,27.019-13.344l26.312-102.576
		c0.863-3.676,3.025-4.757,6.918-4.757H337v-20.314c-13.564,6.29-26.904,13.027-40.029,20.2l-18.559,80.104
		c-1.946,8.647-2.594,16.213-2.594,16.213h-0.433c0,0-0.648-7.35-3.026-16.213l-14.432-56.662c-2.867,1.782-5.731,3.565-8.6,5.347
		C245.139,178.155,240.952,181.148,236.765,184.14z"/>
	<path opacity="0.369" fill="#FFFFFF" enable-background="new    " d="M236.765,184.14c0.369,1.604,0.774,3.262,1.221,4.937
		l22.801,84.865c3.953-2.259,7.906-4.519,11.858-6.777c9.006-4.448,18.012-8.895,27.019-13.344l26.312-102.576
		c0.863-3.676,3.025-4.757,6.918-4.757H337v-20.314c-13.564,6.29-26.904,13.027-40.029,20.2l-18.559,80.104
		c-1.946,8.647-2.594,16.213-2.594,16.213h-0.433c0,0-0.648-7.35-3.026-16.213l-14.432-56.662c-2.867,1.782-5.731,3.565-8.6,5.347
		C245.139,178.155,240.952,181.148,236.765,184.14z"/>
	<path opacity="0.369" fill="#FFFFFF" enable-background="new    " d="M236.765,184.14c0.369,1.604,0.774,3.262,1.221,4.937
		l22.801,84.865c3.953-2.259,7.906-4.519,11.858-6.777c9.006-4.448,18.012-8.895,27.019-13.344l26.312-102.576
		c0.863-3.676,3.025-4.757,6.918-4.757H337v-20.314c-13.564,6.29-26.904,13.027-40.029,20.2l-18.559,80.104
		c-1.946,8.647-2.594,16.213-2.594,16.213h-0.433c0,0-0.648-7.35-3.026-16.213l-14.432-56.662c-2.867,1.782-5.731,3.565-8.6,5.347
		C245.139,178.155,240.952,181.148,236.765,184.14z"/>
	<path opacity="0.369" fill="#FFFFFF" enable-background="new    " d="M164.231,244.451l8.034,31.532h32.86l24.354-86.637
		c-3.672,2.624-7.345,5.25-11.016,7.873c-7.039,5.735-14.077,11.472-21.119,17.206l-3.246,12.053
		c-2.378,8.863-3.243,16.213-3.243,16.213h-0.432c0,0-0.649-7.566-2.595-16.213l-0.757-3.303
		c-7.414,6.882-14.83,13.762-22.243,20.642C164.63,244.028,164.431,244.239,164.231,244.451z"/>
	<path opacity="0.369" fill="#FFFFFF" enable-background="new    " d="M164.231,244.451l8.034,31.532h32.86l24.354-86.637
		c-3.672,2.624-7.345,5.25-11.016,7.873c-7.039,5.735-14.077,11.472-21.119,17.206l-3.246,12.053
		c-2.378,8.863-3.243,16.213-3.243,16.213h-0.432c0,0-0.649-7.566-2.595-16.213l-0.757-3.303
		c-7.414,6.882-14.83,13.762-22.243,20.642C164.63,244.028,164.431,244.239,164.231,244.451z"/>
	<path opacity="0.369" fill="#FFFFFF" enable-background="new    " d="M164.231,244.451l8.034,31.532h32.86l24.354-86.637
		c-3.672,2.624-7.345,5.25-11.016,7.873c-7.039,5.735-14.077,11.472-21.119,17.206l-3.246,12.053
		c-2.378,8.863-3.243,16.213-3.243,16.213h-0.432c0,0-0.649-7.566-2.595-16.213l-0.757-3.303
		c-7.414,6.882-14.83,13.762-22.243,20.642C164.63,244.028,164.431,244.239,164.231,244.451z"/>
	<path opacity="0.369" fill="#FFFFFF" enable-background="new    " d="M164.231,244.451l8.034,31.532h32.86l24.354-86.637
		c-3.672,2.624-7.345,5.25-11.016,7.873c-7.039,5.735-14.077,11.472-21.119,17.206l-3.246,12.053
		c-2.378,8.863-3.243,16.213-3.243,16.213h-0.432c0,0-0.649-7.566-2.595-16.213l-0.757-3.303
		c-7.414,6.882-14.83,13.762-22.243,20.642C164.63,244.028,164.431,244.239,164.231,244.451z"/>
	<path opacity="0.369" fill="#FFFFFF" enable-background="new    " d="M337,122.492h-18.592c-10.81,0-16.647,2.594-18.81,12.539
		l-2.628,11.343c13.125-7.173,26.465-13.91,40.029-20.2V122.492z"/>
	<path opacity="0.369" fill="#FFFFFF" enable-background="new    " d="M337,122.492h-18.592c-10.81,0-16.647,2.594-18.81,12.539
		l-2.628,11.343c13.125-7.173,26.465-13.91,40.029-20.2V122.492z"/>
	<path opacity="0.369" fill="#FFFFFF" enable-background="new    " d="M337,122.492h-18.592c-10.81,0-16.647,2.594-18.81,12.539
		l-2.628,11.343c13.125-7.173,26.465-13.91,40.029-20.2V122.492z"/>
	<path opacity="0.369" fill="#FFFFFF" enable-background="new    " d="M337,122.492h-18.592c-10.81,0-16.647,2.594-18.81,12.539
		l-2.628,11.343c13.125-7.173,26.465-13.91,40.029-20.2V122.492z"/>
	<path opacity="0.369" fill="#FFFFFF" enable-background="new    " d="M337,122.492h-18.592c-10.81,0-16.647,2.594-18.81,12.539
		l-2.628,11.343c13.125-7.173,26.465-13.91,40.029-20.2V122.492z"/>
	<path opacity="0.369" fill="#FFFFFF" enable-background="new    " d="M337,122.492h-18.592c-10.81,0-16.647,2.594-18.81,12.539
		l-2.628,11.343c13.125-7.173,26.465-13.91,40.029-20.2V122.492z"/>
	<path opacity="0.369" fill="#FFFFFF" enable-background="new    " d="M164.231,244.451c0.2-0.212,0.399-0.423,0.598-0.635
		c7.413-6.88,14.829-13.76,22.243-20.642l-5.914-25.787c-7.729,8.123-15.238,16.456-22.56,24.956L164.231,244.451z"/>
	<path opacity="0.369" fill="#FFFFFF" enable-background="new    " d="M164.231,244.451c0.2-0.212,0.399-0.423,0.598-0.635
		c7.413-6.88,14.829-13.76,22.243-20.642l-5.914-25.787c-7.729,8.123-15.238,16.456-22.56,24.956L164.231,244.451z"/>
	<path opacity="0.369" fill="#FFFFFF" enable-background="new    " d="M164.231,244.451c0.2-0.212,0.399-0.423,0.598-0.635
		c7.413-6.88,14.829-13.76,22.243-20.642l-5.914-25.787c-7.729,8.123-15.238,16.456-22.56,24.956L164.231,244.451z"/>
	<path opacity="0.369" fill="#FFFFFF" enable-background="new    " d="M164.231,244.451c0.2-0.212,0.399-0.423,0.598-0.635
		c7.413-6.88,14.829-13.76,22.243-20.642l-5.914-25.787c-7.729,8.123-15.238,16.456-22.56,24.956L164.231,244.451z"/>
	<path opacity="0.369" fill="#FFFFFF" enable-background="new    " d="M164.231,244.451c0.2-0.212,0.399-0.423,0.598-0.635
		c7.413-6.88,14.829-13.76,22.243-20.642l-5.914-25.787c-7.729,8.123-15.238,16.456-22.56,24.956L164.231,244.451z"/>
	<path opacity="0.369" fill="#FFFFFF" enable-background="new    " d="M164.231,244.451c0.2-0.212,0.399-0.423,0.598-0.635
		c7.413-6.88,14.829-13.76,22.243-20.642l-5.914-25.787c-7.729,8.123-15.238,16.456-22.56,24.956L164.231,244.451z"/>
	<path opacity="0.369" fill="#FFFFFF" enable-background="new    " d="M229.479,189.346l0.076-0.269
		c2.809-9.944,4.107-19.024,4.107-19.024h0.433c0,0,0.892,6.375,2.669,14.087c4.188-2.992,8.375-5.985,12.562-8.978
		c2.869-1.781,5.733-3.564,8.6-5.347l-8.978-35.248c-12.546,10.835-24.883,21.905-37.171,32.941c-0.806,0.725-1.59,1.471-2.392,2.2
		l-12.042,44.716c7.042-5.734,14.08-11.471,21.119-17.206C222.135,194.596,225.808,191.97,229.479,189.346z"/>
	<path opacity="0.369" fill="#FFFFFF" enable-background="new    " d="M229.479,189.346l0.076-0.269
		c2.809-9.944,4.107-19.024,4.107-19.024h0.433c0,0,0.892,6.375,2.669,14.087c4.188-2.992,8.375-5.985,12.562-8.978
		c2.869-1.781,5.733-3.564,8.6-5.347l-8.978-35.248c-12.546,10.835-24.883,21.905-37.171,32.941c-0.806,0.725-1.59,1.471-2.392,2.2
		l-12.042,44.716c7.042-5.734,14.08-11.471,21.119-17.206C222.135,194.596,225.808,191.97,229.479,189.346z"/>
	<path opacity="0.369" fill="#FFFFFF" enable-background="new    " d="M229.479,189.346l0.076-0.269
		c2.809-9.944,4.107-19.024,4.107-19.024h0.433c0,0,0.892,6.375,2.669,14.087c4.188-2.992,8.375-5.985,12.562-8.978
		c2.869-1.781,5.733-3.564,8.6-5.347l-8.978-35.248c-12.546,10.835-24.883,21.905-37.171,32.941c-0.806,0.725-1.59,1.471-2.392,2.2
		l-12.042,44.716c7.042-5.734,14.08-11.471,21.119-17.206C222.135,194.596,225.808,191.97,229.479,189.346z"/>
	<path opacity="0.369" fill="#FFFFFF" enable-background="new    " d="M229.479,189.346l0.076-0.269
		c2.809-9.944,4.107-19.024,4.107-19.024h0.433c0,0,0.892,6.375,2.669,14.087c4.188-2.992,8.375-5.985,12.562-8.978
		c2.869-1.781,5.733-3.564,8.6-5.347l-8.978-35.248c-12.546,10.835-24.883,21.905-37.171,32.941c-0.806,0.725-1.59,1.471-2.392,2.2
		l-12.042,44.716c7.042-5.734,14.08-11.471,21.119-17.206C222.135,194.596,225.808,191.97,229.479,189.346z"/>
	<path opacity="0.369" fill="#FFFFFF" enable-background="new    " d="M229.479,189.346l0.076-0.269
		c2.809-9.944,4.107-19.024,4.107-19.024h0.433c0,0,0.892,6.375,2.669,14.087c4.188-2.992,8.375-5.985,12.562-8.978
		c2.869-1.781,5.733-3.564,8.6-5.347l-8.978-35.248c-12.546,10.835-24.883,21.905-37.171,32.941c-0.806,0.725-1.59,1.471-2.392,2.2
		l-12.042,44.716c7.042-5.734,14.08-11.471,21.119-17.206C222.135,194.596,225.808,191.97,229.479,189.346z"/>
	<path opacity="0.369" fill="#FFFFFF" enable-background="new    " d="M229.479,189.346l0.076-0.269
		c2.809-9.944,4.107-19.024,4.107-19.024h0.433c0,0,0.892,6.375,2.669,14.087c4.188-2.992,8.375-5.985,12.562-8.978
		c2.869-1.781,5.733-3.564,8.6-5.347l-8.978-35.248c-12.546,10.835-24.883,21.905-37.171,32.941c-0.806,0.725-1.59,1.471-2.392,2.2
		l-12.042,44.716c7.042-5.734,14.08-11.471,21.119-17.206C222.135,194.596,225.808,191.97,229.479,189.346z"/>
</g>
</svg>
